<svg width="83" height="78" viewBox="0 0 83 78" fill="none" xmlns="http://www.w3.org/2000/svg">
<path d="M7.37503 27.3323V27.2811C7.37496 22.2253 8.87232 17.2827 11.6782 13.0769C14.4841 8.87108 18.4727 5.59053 23.141 3.64913C27.8093 1.70772 32.9479 1.19244 37.9087 2.16828C42.8695 3.14413 47.4301 5.56739 51.0152 9.13233C53.836 7.74009 56.9867 7.15473 60.1193 7.44091C63.2519 7.72709 66.2443 8.87367 68.7661 10.754C71.2879 12.6343 73.2408 15.1751 74.4091 18.0957C75.5774 21.0164 75.9155 24.2031 75.3862 27.3039C76.1644 27.3761 76.9194 27.608 77.6041 27.985C78.2887 28.362 78.8883 28.8761 79.3654 29.4952C79.8425 30.1143 80.1869 30.825 80.3771 31.5831C80.5673 32.3412 80.5992 33.1304 80.4708 33.9014C77.9 49.3657 71.5414 59.1539 61.4063 63.2716V67.0936C61.4063 69.3563 60.5075 71.5262 58.9075 73.1261C57.3076 74.7261 55.1377 75.6249 52.875 75.6249H30.125C27.8624 75.6249 25.6924 74.7261 24.0925 73.1261C22.4926 71.5262 21.5938 69.3563 21.5938 67.0936V63.2716C11.4587 59.1539 5.10003 49.3657 2.52928 33.9014C2.40522 33.1509 2.43296 32.3831 2.61087 31.6435C2.78878 30.904 3.11325 30.2076 3.56506 29.5956C4.01688 28.9836 4.58686 28.4685 5.24129 28.0807C5.89571 27.693 6.62127 27.4404 7.37503 27.338V27.3323ZM13.0625 27.2811H18.75C18.75 23.5101 20.2481 19.8935 22.9146 17.227C25.5811 14.5604 29.1977 13.0624 32.9688 13.0624C36.7398 13.0624 40.3564 14.5604 43.023 17.227C45.6895 19.8935 47.1875 23.5101 47.1875 27.2811H52.875C52.875 22.0017 50.7778 16.9384 47.0446 13.2053C43.3115 9.47215 38.2482 7.37489 32.9688 7.37489C27.6893 7.37489 22.6261 9.47215 18.8929 13.2053C15.1598 16.9384 13.0625 22.0017 13.0625 27.2811ZM24.4375 27.2811H41.5C41.5 25.0185 40.6012 22.8486 39.0013 21.2486C37.4014 19.6487 35.2314 18.7499 32.9688 18.7499C30.7062 18.7499 28.5362 19.6487 26.9363 21.2486C25.3364 22.8486 24.4375 25.0185 24.4375 27.2811ZM63.4879 27.2811H69.5792C70.0086 25.6003 70.0486 23.8437 69.6963 22.145C69.3439 20.4464 68.6084 18.8506 67.5459 17.4793C66.4834 16.108 65.1219 14.9973 63.5651 14.2318C62.0083 13.4664 60.2973 13.0664 58.5625 13.0624C57.1975 13.0624 55.9008 13.3013 54.695 13.7392C55.7017 15.3545 56.5321 17.0948 57.1691 18.9205C58.2524 18.6518 59.3907 18.7072 60.4428 19.0796C61.4949 19.4521 62.4145 20.1253 63.0874 21.0157C63.7604 21.9061 64.1571 22.9745 64.2283 24.0883C64.2995 25.2021 64.042 26.3123 63.4879 27.2811ZM55.7188 64.2499H27.2813V67.0936C27.2813 67.8479 27.5809 68.5712 28.1142 69.1045C28.6475 69.6378 29.3708 69.9374 30.125 69.9374H52.875C53.6292 69.9374 54.3526 69.6378 54.8859 69.1045C55.4192 68.5712 55.7188 67.8479 55.7188 67.0936V64.2499ZM25.2793 58.5624H57.7208C66.7412 55.6618 72.4514 47.4604 74.8629 32.9686H8.13716C10.5487 47.4604 16.2589 55.6618 25.2793 58.5624Z" fill="#0C0F4B" stroke="#0C0F4B" stroke-width="3"/>
</svg>
