<svg width="65" height="74" viewBox="0 0 65 74" fill="none" xmlns="http://www.w3.org/2000/svg">
<path d="M1.2096 7.30751L1.20964 7.30703C1.37202 5.48494 2.22952 3.79167 3.6083 2.56245C4.98646 1.33378 6.78488 0.658087 8.64619 0.666583C10.2739 0.66683 11.79 1.17609 13.0239 2.04232C14.3354 1.14819 15.8972 0.666848 17.4999 0.666583L17.5 0.666583C19.1619 0.666583 20.7061 1.17272 21.9762 2.0416C23.2499 1.14497 24.7821 0.662467 26.3557 0.666583M1.2096 7.30751L34.5 20.8749H34L34.5 20.8749C34.5 16.2261 34.0987 10.8046 33.7904 7.30751M1.2096 7.30751C0.901298 10.8047 0.5 16.2297 0.5 20.8749H1L1.2096 7.30751ZM26.3557 0.666583C26.3559 0.666584 26.3561 0.666584 26.3564 0.666585L26.355 1.16658V0.666583C26.3552 0.666583 26.3555 0.666583 26.3557 0.666583ZM26.3557 0.666583C30.1771 0.666916 33.4546 3.48995 33.7904 7.30751M33.7904 7.30751L33.2927 7.35138L33.7904 7.30761C33.7904 7.30758 33.7904 7.30754 33.7904 7.30751ZM8.72463 35.1157C9.42066 35.5263 9.48884 35.9599 9.4842 36.0389L9.98333 36.0682L9.48446 36.0347C9.01984 42.9493 7.83333 60.9575 7.83333 63.8642C7.83333 66.3764 8.85464 68.7834 10.6687 70.5563C12.4824 72.3287 14.9399 73.3225 17.5 73.3225C20.0601 73.3225 22.5176 72.3287 24.3313 70.5563C26.1454 68.7834 27.1667 66.3764 27.1667 63.8642C27.1667 60.9575 25.9802 42.9493 25.5155 36.0347L25.5154 36.0326L8.72463 35.1157ZM8.72463 35.1157C8.72468 35.1158 8.72474 35.1158 8.72479 35.1158L8.97867 34.6851L8.72463 35.1157ZM8.6365 7.04151L8.6365 7.04158H8.645C8.91962 7.04158 9.18075 7.14831 9.37152 7.33473C9.56189 7.52078 9.66667 7.77063 9.66667 8.02867V19.9791C9.66667 20.8282 10.0119 21.6402 10.6227 22.237C11.233 22.8335 12.0584 23.1666 12.9167 23.1666C13.775 23.1666 14.6003 22.8335 15.2107 22.237C15.8214 21.6402 16.1667 20.8282 16.1667 19.9791V8.33325C16.1667 7.99444 16.3043 7.66711 16.5531 7.42394C16.8023 7.1804 17.1427 7.04158 17.5 7.04158C17.8573 7.04158 18.1977 7.1804 18.4469 7.42394C18.6957 7.66711 18.8333 7.99444 18.8333 8.33325V19.9791C18.8333 20.8282 19.1786 21.6402 19.7893 22.237C20.3997 22.8335 21.225 23.1666 22.0833 23.1666C22.9416 23.1666 23.767 22.8335 24.3773 22.237C24.9881 21.6402 25.3333 20.8282 25.3333 19.9791V8.02867C25.3333 7.77063 25.4381 7.52078 25.6285 7.33473C25.8193 7.14831 26.0804 7.04158 26.355 7.04158V7.04166L26.3635 7.04151C26.6035 7.03743 26.8345 7.12203 27.0107 7.27559C27.1859 7.42828 27.2937 7.63743 27.3165 7.86049C27.6205 11.315 28 16.5128 28 20.8749V20.875C28.0001 22.6399 27.5334 24.3755 26.6443 25.9134C25.7551 27.4515 24.4734 28.7401 22.9223 29.6532L22.9214 29.6538C20.8205 30.897 18.8217 33.3084 19.0287 36.4523L19.0288 36.4529C19.5065 43.5637 20.6667 61.231 20.6667 63.8677C20.6667 64.6817 20.3359 65.4648 19.7433 66.044C19.1502 66.6235 18.3435 66.9511 17.5 66.9511C16.6565 66.9511 15.8498 66.6235 15.2567 66.044C14.6641 65.4648 14.3333 64.6817 14.3333 63.8677C14.3333 61.231 15.4935 43.5637 15.9712 36.4529L15.9713 36.4523C16.1783 33.3084 14.1795 30.897 12.0786 29.6538L12.0779 29.6534C9.02371 27.8529 7 24.5931 7 20.8749C7 16.5093 7.37948 11.3151 7.68347 7.86059C7.70625 7.63749 7.81409 7.42831 7.98929 7.27559C8.16545 7.12203 8.39645 7.03743 8.6365 7.04151ZM62.8241 47.3322L62.8238 47.3281C62.3863 41.0511 62 35.4289 62 34.3124V3.85408C62 3.00495 61.6547 2.19298 61.044 1.59614C60.4337 0.99968 59.6083 0.666583 58.75 0.666583C53.0294 0.666583 47.5409 2.88732 43.4924 6.84381C39.4435 10.8007 37.1667 16.1698 37.1667 21.7707V30.7291C37.1667 31.6199 37.3462 32.5016 37.6948 33.3239C38.0433 34.1462 38.5538 34.8926 39.1966 35.5208C39.8394 36.149 40.6018 36.6467 41.4402 36.986C42.2785 37.3254 43.1766 37.4999 44.0833 37.4999H46.1046L46.0559 38.2305C46.0558 38.2308 46.0558 38.2311 46.0558 38.2315C45.8835 40.7326 45.6524 44.1047 45.4251 47.5844C44.9713 54.4624 44.5 62.0009 44.5 63.8642C44.5 66.3764 45.5213 68.7834 47.3354 70.5563C49.1491 72.3287 51.6066 73.3225 54.1667 73.3225C56.7268 73.3225 59.1843 72.3287 60.9979 70.5563C62.812 68.7834 63.8333 66.3764 63.8333 63.8642C63.8333 61.9101 63.3178 54.4486 62.8423 47.6275C62.8422 47.6269 62.8422 47.6262 62.8421 47.6256L62.8241 47.3322ZM55.5 7.38505V34.3124C55.5 35.6863 55.8983 41.4584 56.3115 47.3869L56.3372 47.7592L56.3372 47.7594C56.8297 54.8636 57.3333 62.167 57.3333 63.8642C57.3333 64.6782 57.0026 65.4612 56.4099 66.0404C55.8169 66.6199 55.0102 66.9475 54.1667 66.9475C53.3232 66.9475 52.5164 66.6199 51.9234 66.0404C51.3308 65.4612 51 64.6782 51 63.8642C51 62.2695 51.4454 55.0339 51.9083 47.9978C52.179 43.8842 52.4588 39.7713 52.7478 35.659L52.7478 35.6581L52.8247 34.5342C52.8247 34.5342 52.8248 34.5341 52.8248 34.534C52.8559 34.0964 52.7945 33.6573 52.6447 33.2442C52.4949 32.8311 52.2601 32.4534 51.9554 32.1342C51.6508 31.815 51.2829 31.5611 50.875 31.3878C50.4671 31.2144 50.0275 31.125 49.5835 31.1249H49.5833H44.0833C43.8426 31.1249 43.6667 30.9367 43.6667 30.7291V21.7707V21.7707C43.6661 18.3178 44.9078 14.9731 47.1772 12.322C49.3188 9.81998 52.2473 8.08586 55.5 7.38505ZM26.0213 34.6851L26.2752 35.1158C26.2753 35.1158 26.2753 35.1158 26.2754 35.1157L26.0213 34.6851Z" fill="#0C0F4B" stroke="#0C0F4B"/>
</svg>
