<svg width="104" height="104" viewBox="0 0 104 104" fill="none" xmlns="http://www.w3.org/2000/svg">
<path d="M39.7496 64.2632C38.14 62.6536 36.8632 60.7428 35.9921 58.6397C35.121 56.5367 34.6726 54.2827 34.6726 52.0064C34.6726 49.7301 35.121 47.4761 35.9921 45.373C36.8632 43.27 38.14 41.3591 39.7496 39.7496C41.3591 38.14 43.27 36.8632 45.373 35.9921C47.4761 35.121 49.7301 34.6726 52.0064 34.6726C54.2827 34.6726 56.5367 35.121 58.6397 35.9921C60.7428 36.8632 62.6536 38.14 64.2632 39.7496" stroke="#0C0F4B" stroke-width="9" stroke-linecap="round" stroke-linejoin="round"/>
<path d="M48.9407 55.0637L49.6947 56.134C53.9811 61.9298 60.0728 66.136 67.0113 68.0908C73.9498 70.0457 81.3414 69.6383 88.023 66.9327C85.564 72.8498 81.6849 78.0699 76.7287 82.1313C71.7725 86.1928 65.8919 88.9705 59.607 90.2188C53.322 91.4672 46.8263 91.1477 40.6941 89.2886C34.562 87.4296 28.9824 84.0882 24.4487 79.56M13 52H17.3333M52 13V17.3333M24.2667 24.2667L27.3 27.3M13 91L91 13" stroke="#0C0F4B" stroke-width="9" stroke-linecap="round" stroke-linejoin="round"/>
</svg>
