<svg width="94" height="80" viewBox="0 0 94 80" fill="none" xmlns="http://www.w3.org/2000/svg">
<path d="M60.25 69.8125C54.7968 69.8161 49.5188 67.8866 45.3537 64.3668C57.9147 59.663 66.875 47.579 66.875 33.375C66.875 30.1387 66.3914 27.0216 65.5268 24.0636C75.7757 26.4618 83.4375 35.654 83.4375 46.625C83.4375 59.4079 73.0329 69.8125 60.25 69.8125ZM10.5625 33.375C10.5625 20.5921 20.9671 10.1875 33.75 10.1875C39.2032 10.1839 44.4812 12.1134 48.6463 15.6333C36.0853 20.337 27.125 32.421 27.125 46.625C27.125 49.8613 27.6086 52.9784 28.4732 55.9364C18.2243 53.5382 10.5625 44.346 10.5625 33.375ZM56.9375 33.375C56.9375 44.3427 49.2757 53.5349 39.0301 55.9331C37.7286 53.0028 37.0582 49.8314 37.0625 46.625C37.0625 35.6573 44.7243 26.4651 54.9699 24.0669C56.2286 26.9189 56.9375 30.0625 56.9375 33.375ZM60.25 13.5L60.2069 13.5033C54.1616 5.46719 44.5786 0.25 33.75 0.25C15.4584 0.25 0.625 15.0834 0.625 33.375C0.625 51.6666 15.4584 66.5 33.75 66.5L33.7931 66.4967C39.8384 74.5328 49.4214 79.75 60.25 79.75C78.5416 79.75 93.375 64.9166 93.375 46.625C93.375 28.3334 78.5416 13.5 60.25 13.5Z" fill="#0C0F4B"/>
</svg>
