<svg width="182" height="162" viewBox="0 0 182 162" fill="none" xmlns="http://www.w3.org/2000/svg">
<path d="M139.311 9.0999C138.887 9.0999 138.427 9.13154 138.002 9.15053C136.835 9.23279 135.632 9.41631 134.393 9.71057C129.652 10.8496 124.664 13.634 120.489 18.5383C120.064 20.1045 120.1 21.4904 120.524 22.5124C121.232 24.1039 122.895 25.5973 127.919 26.3156L126.928 31.9255C121.586 31.1787 117.658 29.1411 115.571 26.2934C113.554 30.6155 112.033 35.8489 111.325 42.1454L111.148 43.411L110.016 44.1704C67.6652 71.6028 33.735 103.022 10.3341 132.669C44.1016 126.088 76.0505 119.032 100.074 107.831C125.301 96.0294 141.753 80.1774 144.017 54.9915C144.017 52.4286 143.274 50.72 142.283 49.486C141.08 48.0622 139.382 47.2079 137.507 46.8598C135.632 46.4801 133.615 46.7016 132.129 47.2712C130.678 47.8407 129.9 48.6001 129.617 49.5493L123.461 48.1571C124.275 45.2462 126.787 43.1262 129.582 42.0505C135.172 39.9938 141.753 41.038 145.998 44.6766C147.024 41.5758 148.334 38.3801 149.536 35.2477C149.855 34.4251 150.173 33.6024 150.456 32.8114C155.693 28.2298 161.177 25.4961 171.119 32.843C172.216 24.2399 162.344 15.8204 153.11 17.5859C152.225 14.5737 150.173 12.3842 147.378 10.9256C145.149 9.73904 142.354 9.07776 139.311 9.0999ZM144.052 14.5547C145.822 14.5547 147.237 15.8299 147.237 17.4024C147.237 18.9749 145.822 20.2501 144.052 20.2501C142.283 20.2501 140.868 18.9749 140.868 17.4024C140.868 15.8299 142.283 14.5547 144.052 14.5547ZM132.907 92.7071C129.688 95.9661 126.114 98.9719 122.187 101.788C121.55 109.065 120.949 116.627 117.623 124C119.321 124.126 120.984 124.19 122.435 124.095C124.098 123.968 125.407 123.652 126.185 123.24C126.999 122.797 127.423 122.418 127.742 121.468C130.785 112.071 132.023 102.452 132.907 92.7071ZM115.252 106.376C111.396 108.686 107.327 110.837 103.011 112.862C99.508 114.507 95.8637 116.026 92.1134 117.513L94.6608 126.215C95.05 127.543 95.5453 127.86 96.7483 128.208C97.9158 128.556 99.8618 128.556 101.914 128.176C104.001 127.797 106.16 127.037 107.787 126.246C109.415 125.455 110.476 124.316 110.299 124.632C113.519 119.032 114.545 112.862 115.252 106.376ZM64.6225 126.436C51.9207 129.885 38.4406 132.891 24.5784 135.707C23.1031 137.574 21.9461 139.599 21.5746 140.959C21.3906 141.655 21.4154 142.098 21.4578 142.256C26.0326 144.503 32.571 145.294 37.1316 145.167C43.0048 144.977 48.9134 143.712 52.4868 142.193C55.848 140.801 60.2706 134.979 63.1719 129.379C63.7026 128.366 64.1625 127.385 64.6225 126.436ZM125.336 129.474C124.522 129.6 123.744 129.695 122.93 129.758C121.621 129.853 120.277 129.853 118.932 129.79L120.524 147.192H104.037L105.134 133.334C104.497 133.492 103.86 133.618 103.223 133.745C101.737 134.03 100.216 134.188 98.6588 134.188L97.6682 147.192H86.0279L81.0746 152.888H153.747L148.086 147.192H126.928L125.336 129.474Z" fill="#10146D"/>
</svg>
