<svg width="238" height="238" viewBox="0 0 238 238" fill="none" xmlns="http://www.w3.org/2000/svg">
<path fill-rule="evenodd" clip-rule="evenodd" d="M117 4.73038C105 -2.79313 80.9997 -1.28839 75.4997 16.2665C74.6154 19.0891 44.9997 14.4177 47.9997 49.3699C47.9997 49.3699 18.5 49.3699 20 78.4608C8 83.978 -0.719868 98.7542 0.167025 113.934C1.05392 129.113 7.67434 143.377 18.6734 153.808C29.6725 164.238 44.2186 170.046 59.3348 170.042H100.34V220.929C100.34 225.446 102.124 229.777 105.299 232.971C108.474 236.165 112.78 237.959 117.27 237.959C121.76 237.959 126.067 236.165 129.242 232.971C132.417 229.777 134.2 225.446 134.2 220.929V170.042H177.914C193.13 170.015 207.753 164.101 218.753 153.525C229.752 142.949 236.286 128.522 237 113.233C237.713 97.9435 232.167 83.9781 216.499 76.9562C211.5 46.3605 183.467 51.1028 183.467 51.1028C183.467 51.1028 188.5 22.2852 159.5 19.2758C159.5 19.2758 145 -8.81194 117 4.73038Z" fill="#0C0F4B"/>
</svg>
