<svg width="182" height="176" viewBox="0 0 182 176" fill="none" xmlns="http://www.w3.org/2000/svg">
<path d="M49.6007 6.96094L43.8892 8.50781C47.2239 20.0234 51.8001 26.0734 57.015 29.2359C62.3007 32.4672 68.4024 32.7422 75.0717 32.1578C83.9405 31.3672 93.9444 28.8578 104.161 32.5359C106.928 33.7391 109.837 35.2687 112.924 37.2969C114.555 36.8156 115.974 36.1969 117.393 35.75C117.393 35.75 118.529 32.2266 116.684 27.7234C115.088 23.7703 111.114 18.7859 101.075 15.2797L99.0883 20.6422C105.261 22.8422 108.596 25.5578 110.298 28.1359C110.547 28.5141 110.724 28.8578 110.901 29.2016C109.553 28.5141 108.17 27.8953 106.822 27.4141C96.8534 22.9453 88.8715 22.6703 82.486 21.9828C79.0804 21.6391 76.2069 21.2266 73.8301 19.5766C71.4533 17.8922 69.6795 14.9703 68.1541 9.88281L62.4781 11.4984C64.5002 18.2359 67.1963 21.9484 70.3536 24.1828C71.7726 25.1797 73.298 25.9016 74.9298 26.4172C69.3248 26.7094 64.039 26.6475 60.1368 24.3891C55.8088 21.7422 52.3677 16.5172 49.6007 6.96094ZM81.3508 8.19844C81.0315 12.0484 81.741 15.1766 82.9117 17.7203C85.6433 18.0503 88.0201 18.0984 90.5034 18.5109C88.5877 16.4484 86.8849 13.2859 87.2397 8.61094L81.3508 8.19844ZM124.027 12.8391L120.16 17.1359C123.069 19.6109 123.885 22.5672 123.885 25.0766C122.324 23.7291 120.905 22.8319 119.238 22.0172C121.792 24.9116 122.147 30.0472 122.324 32.8109L127.823 33.3953C127.823 33.3953 134.067 21.2953 124.027 12.8391ZM95.3989 36.6781C89.1908 37.3656 85.8916 35.7844 83.905 41.4219C83.905 41.4219 90.5743 51.0125 108.347 50.7719C107.354 54.6906 107.815 57.5781 107.815 61.05C107.815 72.6 98.2369 82.6719 77.1293 82.6719C66.4158 82.6719 53.3965 84.5281 43.4635 89.7188C36.404 93.3969 30.8805 98.725 28.4363 106.116L31.2069 109.863L36.5104 109.931V131.141L30.0398 140.869L31.8987 169.056H38.0358L38.568 146.369C41.6188 144.65 48.6074 140.181 54.5672 133.306C62.6555 124.059 68.8636 110.619 61.5558 93.9812L67.0189 91.7469C73.0142 105.394 70.9212 117.219 65.6709 126.741C75.7103 126.431 84.3307 125.812 91.6385 124.644L89.9712 105.291L95.8601 104.809L101.465 169.056H107.567L108.596 127.222C113.456 125.228 124.524 117.906 129.703 92.4688C130.342 89.375 130.697 86.7625 130.874 84.5281C131.69 78.8562 132.151 72.4625 132.293 65.175L123.602 62.5281H150.314L152.904 56.8562C150.385 56.9594 147.37 55.6875 147.37 55.6875L147.973 52.9375H153.578L123.247 37.7094C119.877 38.9469 116.329 40.5625 113.846 42.5219C111.859 41.1469 104.977 36.85 95.3989 36.6781ZM129.278 114.572C125.836 120.794 122.147 125.434 118.954 128.734L135.663 135.884L128.249 152.212L133.57 154.619L145.419 132.344L129.703 119.488C129.561 118.697 129.384 117.15 129.278 114.572ZM74.717 132.034C70.7083 132.275 66.4513 132.447 61.9105 132.516C58.8242 136.469 55.2767 140.284 51.5873 143.241L54.6736 169.022H60.7398V146.678C63.3295 144.616 69.5731 139.356 74.717 132.034Z" fill="#10146D"/>
</svg>
