<svg width="212" height="225" viewBox="0 0 212 225" fill="none" xmlns="http://www.w3.org/2000/svg">
<path fill-rule="evenodd" clip-rule="evenodd" d="M105.821 0C105.821 0 111.969 7.54664 114.188 9.81981C116.407 12.093 117.654 15.1761 117.654 18.3908V20.6938C132.529 26.8029 141.321 44.0878 141.321 60.815C141.321 81.5787 127.76 103.239 105.821 103.239C83.8817 103.239 70.3207 81.5787 70.3207 60.815C70.3207 44.0878 79.1129 26.8029 93.9874 20.6938V18.3908C93.9874 15.1761 95.2341 12.093 97.4533 9.81981C99.6724 7.54664 105.821 0 105.821 0ZM183.921 49.2151C179.392 49.4482 174.972 50.7199 170.987 52.9363C163.792 56.8757 157.793 63.5787 154.053 71.7969C150.314 80.0029 149.154 89.0211 150.835 97.1908C152.515 105.361 157.284 113.457 165.863 117.554C174.43 121.651 183.554 120.197 190.749 116.257C197.931 112.318 203.931 105.615 207.67 97.409C211.41 89.1908 212.569 80.1726 210.889 72.0029C209.972 67.4551 208.085 63.1712 205.363 59.4575C206.595 56.5594 206.673 53.283 205.58 50.3268L202.821 37.116C202.821 37.116 189.321 43.7261 190.609 43.1755C187.696 44.2183 185.296 46.3855 183.921 49.2151ZM6.2787 59.506C3.46236 63.2635 1.6637 67.6272 0.752529 72.0514C-0.927804 80.2211 0.231861 89.2393 3.97119 97.4454C7.71053 105.651 13.71 112.354 20.8929 116.306C28.0875 120.245 37.211 121.7 45.7784 117.603C54.3457 113.506 59.1264 105.409 60.8067 97.2393C62.487 89.0696 61.3274 80.0514 57.588 71.8332C53.8487 63.6272 47.8492 56.9241 40.6664 52.9847C36.6718 50.7818 32.251 49.5111 27.7207 49.2635C26.3947 46.3494 23.9929 44.0941 21.0436 42.9939L9 35.6113L5.87346 50.2364C4.79938 53.2574 4.94089 56.5918 6.26686 59.506H6.2787ZM48.4409 134.985C64.9859 122.247 85.1233 115.36 105.821 115.361C128.186 115.361 148.421 123.433 163.201 134.985C177.554 146.197 188.654 162.318 188.654 179.336C188.654 196.391 174.643 207.639 160.858 213.967C146.125 220.718 126.647 224.451 105.821 224.451C84.994 224.451 65.5164 220.718 50.7839 213.967C36.998 207.639 22.9874 196.391 22.9874 179.336C22.9874 162.318 34.087 146.197 48.4409 134.973V134.985Z" fill="#0C0F4B"/>
</svg>
