<svg width="98" height="85" viewBox="0 0 98 85" fill="none" xmlns="http://www.w3.org/2000/svg">
<path d="M27.3334 80.0001V67.0001H4.9084C3.17507 67.0001 1.91118 66.2418 1.11674 64.7251C0.322293 63.2084 0.394515 61.7279 1.3334 60.2834L13.6834 41.0001C12.0223 41.0001 10.7772 40.2605 9.94807 38.7814C9.11896 37.3023 9.20851 35.8391 10.2167 34.3918L32.4251 2.75841C33.2917 1.53064 34.4834 0.916748 36.0001 0.916748C37.5167 0.916748 38.7084 1.53064 39.5751 2.75841L49.0001 16.3001L58.4251 2.75841C59.2917 1.53064 60.4834 0.916748 62.0001 0.916748C63.5167 0.916748 64.7084 1.53064 65.5751 2.75841L87.7834 34.3918C88.7945 35.8362 88.8855 37.2994 88.0564 38.7814C87.2273 40.2634 85.9807 41.003 84.3167 41.0001L96.6667 60.2834C97.6056 61.7279 97.6778 63.2084 96.8834 64.7251C96.089 66.2418 94.8251 67.0001 93.0917 67.0001H70.6667V80.0001C70.6667 81.2279 70.2507 82.2577 69.4187 83.0897C68.5867 83.9217 67.5583 84.3363 66.3334 84.3334H57.6667C56.439 84.3334 55.4105 83.9174 54.5814 83.0854C53.7523 82.2534 53.3363 81.225 53.3334 80.0001V67.0001H44.6667V80.0001C44.6667 81.2279 44.2507 82.2577 43.4187 83.0897C42.5867 83.9217 41.5583 84.3363 40.3334 84.3334H31.6667C30.439 84.3334 29.4105 83.9174 28.5814 83.0854C27.7523 82.2534 27.3363 81.225 27.3334 80.0001ZM69.4751 58.3334H85.1834L68.3917 32.3334H75.6501L62.0001 12.8334L54.3084 23.7751L61.7834 34.3918C62.7945 35.8362 62.8855 37.2994 62.0564 38.7814C61.2273 40.2634 59.9807 41.003 58.3167 41.0001L69.4751 58.3334ZM12.8167 58.3334H59.1834L42.3917 32.3334H49.6501L36.0001 12.8334L22.3501 32.3334H29.6084L12.8167 58.3334ZM12.8167 58.3334H29.6084H22.3501H49.6501H42.3917H59.1834H12.8167ZM69.4751 58.3334H58.3167H66.3334H54.3084H75.6501H68.3917H85.1834H69.4751Z" fill="#0C0F4B"/>
</svg>
