<svg width="218" height="39" viewBox="0 0 218 39" fill="none" xmlns="http://www.w3.org/2000/svg">
<path d="M65.918 30H59.502L55.3125 22.7344H52.2656V30H46.4648V8.02734H55.752C57.6562 8.02734 59.2773 8.31543 60.6152 8.8916C61.9531 9.46777 62.9736 10.3076 63.6768 11.4111C64.3896 12.5049 64.7461 13.8281 64.7461 15.3809C64.7461 16.8359 64.4336 18.0908 63.8086 19.1455C63.1836 20.2002 62.2803 21.0303 61.0986 21.6357L65.918 30ZM52.2656 18.2666H55.2979C56.46 18.2666 57.334 18.0518 57.9199 17.6221C58.5156 17.1826 58.8135 16.5332 58.8135 15.6738C58.8135 14.8145 58.5156 14.1699 57.9199 13.7402C57.334 13.3008 56.46 13.0811 55.2979 13.0811H52.2656V18.2666ZM70.3711 12.5977C69.7168 12.5977 69.165 12.3682 68.7158 11.9092C68.2666 11.4502 68.042 10.8936 68.042 10.2393C68.042 9.58496 68.2666 9.02832 68.7158 8.56934C69.165 8.11035 69.7168 7.88086 70.3711 7.88086C71.0352 7.88086 71.5918 8.11035 72.041 8.56934C72.5 9.02832 72.7295 9.58496 72.7295 10.2393C72.7295 10.8936 72.5 11.4502 72.041 11.9092C71.5918 12.3682 71.0352 12.5977 70.3711 12.5977ZM73.0811 30H67.6758V15.3516H73.0811V30ZM75 28.7549L76.1133 24.3018C76.377 24.6143 76.7676 24.917 77.2852 25.21C77.8125 25.5029 78.3838 25.7422 78.999 25.9277C79.6143 26.1035 80.1807 26.1914 80.6982 26.1914C81.0889 26.1914 81.3867 26.1328 81.5918 26.0156C81.7969 25.8984 81.8994 25.7324 81.8994 25.5176C81.8994 25.293 81.8018 25.1025 81.6064 24.9463C81.4111 24.7803 81.1475 24.6289 80.8154 24.4922C80.4932 24.3555 80.1221 24.2139 79.7021 24.0674C79.0771 23.8428 78.418 23.5693 77.7246 23.2471C77.041 22.915 76.46 22.4658 75.9814 21.8994C75.5029 21.3232 75.2637 20.5566 75.2637 19.5996C75.2637 18.6719 75.5078 17.8711 75.9961 17.1973C76.4941 16.5137 77.1924 15.9863 78.0908 15.6152C78.999 15.2441 80.0635 15.0586 81.2842 15.0586C83.3252 15.0586 85.3809 15.5713 87.4512 16.5967L85.9424 20.7129C85.6299 20.4395 85.2197 20.1807 84.7119 19.9365C84.2041 19.6924 83.6816 19.4922 83.1445 19.3359C82.6172 19.1797 82.1582 19.1016 81.7676 19.1016C81.4453 19.1016 81.2012 19.1602 81.0352 19.2773C80.8789 19.3848 80.8008 19.5361 80.8008 19.7314C80.8008 19.9463 80.8936 20.1367 81.0791 20.3027C81.2744 20.459 81.5332 20.6055 81.8555 20.7422C82.1875 20.8691 82.5488 21.0059 82.9395 21.1523C83.5938 21.377 84.2676 21.6553 84.9609 21.9873C85.6543 22.3096 86.2402 22.7588 86.7188 23.335C87.207 23.9014 87.4512 24.668 87.4512 25.6348C87.4512 26.582 87.1875 27.4072 86.6602 28.1104C86.1426 28.8037 85.4053 29.3408 84.4482 29.7217C83.501 30.1025 82.3779 30.293 81.0791 30.293C78.9111 30.293 76.8848 29.7803 75 28.7549ZM102.876 27.5244C102.163 28.3838 101.27 29.0625 100.195 29.5605C99.1211 30.0488 97.9248 30.293 96.6064 30.293C95.0732 30.293 93.7012 29.9658 92.4902 29.3115C91.2891 28.6475 90.3418 27.7441 89.6484 26.6016C88.9648 25.4492 88.623 24.1406 88.623 22.6758C88.623 21.2109 88.9648 19.9072 89.6484 18.7646C90.3418 17.6123 91.2891 16.709 92.4902 16.0547C93.7012 15.3906 95.0732 15.0586 96.6064 15.0586C97.915 15.0586 99.1016 15.3027 100.166 15.791C101.24 16.2793 102.134 16.9434 102.847 17.7832L99.6973 21.1084C99.3945 20.7373 98.999 20.4443 98.5107 20.2295C98.0322 20.0049 97.5293 19.8926 97.002 19.8926C96.4551 19.8926 95.9668 20.0098 95.5371 20.2441C95.1074 20.4785 94.7705 20.8057 94.5264 21.2256C94.2822 21.6357 94.1602 22.1094 94.1602 22.6465C94.1602 23.1934 94.2822 23.6816 94.5264 24.1113C94.7705 24.5312 95.1074 24.8633 95.5371 25.1074C95.9668 25.3418 96.4551 25.459 97.002 25.459C97.5293 25.459 98.0371 25.3516 98.5254 25.1367C99.0137 24.9121 99.4043 24.6143 99.6973 24.2432L102.876 27.5244ZM112.192 30.293C110.659 30.293 109.287 29.9658 108.076 29.3115C106.875 28.6475 105.928 27.7441 105.234 26.6016C104.551 25.4492 104.209 24.1406 104.209 22.6758C104.209 21.2109 104.551 19.9072 105.234 18.7646C105.928 17.6123 106.875 16.709 108.076 16.0547C109.287 15.3906 110.659 15.0586 112.192 15.0586C113.735 15.0586 115.103 15.3906 116.294 16.0547C117.495 16.709 118.438 17.6123 119.121 18.7646C119.805 19.9072 120.146 21.2109 120.146 22.6758C120.146 24.1406 119.805 25.4492 119.121 26.6016C118.438 27.7441 117.495 28.6475 116.294 29.3115C115.103 29.9658 113.735 30.293 112.192 30.293ZM112.178 25.459C112.646 25.459 113.062 25.3418 113.423 25.1074C113.794 24.8633 114.082 24.5312 114.287 24.1113C114.502 23.6816 114.609 23.1934 114.609 22.6465C114.609 22.1191 114.502 21.6504 114.287 21.2402C114.082 20.8203 113.794 20.4932 113.423 20.2588C113.062 20.0146 112.646 19.8926 112.178 19.8926C111.709 19.8926 111.289 20.0146 110.918 20.2588C110.557 20.4932 110.269 20.8203 110.054 21.2402C109.849 21.6504 109.746 22.1191 109.746 22.6465C109.746 23.1934 109.849 23.6816 110.054 24.1113C110.269 24.5312 110.557 24.8633 110.918 25.1074C111.289 25.3418 111.709 25.459 112.178 25.459ZM133.55 30H127.471L136.055 8.02734H142.134L150.703 30H144.624L143.203 26.0889H134.971L133.55 30ZM136.816 21.0352H141.372L139.087 14.7656L136.816 21.0352ZM158.115 30H152.314V8.02734H158.115V30ZM172.441 29.5898C171.211 30.0586 170.024 30.293 168.882 30.293C167.642 30.293 166.548 30.0342 165.601 29.5166C164.653 28.999 163.911 28.2812 163.374 27.3633C162.847 26.4355 162.583 25.3662 162.583 24.1553V20.1709H160.02V15.3516H162.876V11.6895H167.988V15.3516H171.841V20.1709H167.988V23.1738C167.988 23.9258 168.198 24.4971 168.618 24.8877C169.038 25.2686 169.531 25.459 170.098 25.459C170.674 25.459 171.23 25.2734 171.768 24.9023L172.441 29.5898ZM181.597 30.293C180.063 30.293 178.691 29.9658 177.48 29.3115C176.279 28.6475 175.332 27.7441 174.639 26.6016C173.955 25.4492 173.613 24.1406 173.613 22.6758C173.613 21.2109 173.955 19.9072 174.639 18.7646C175.332 17.6123 176.279 16.709 177.48 16.0547C178.691 15.3906 180.063 15.0586 181.597 15.0586C183.14 15.0586 184.507 15.3906 185.698 16.0547C186.899 16.709 187.842 17.6123 188.525 18.7646C189.209 19.9072 189.551 21.2109 189.551 22.6758C189.551 24.1406 189.209 25.4492 188.525 26.6016C187.842 27.7441 186.899 28.6475 185.698 29.3115C184.507 29.9658 183.14 30.293 181.597 30.293ZM181.582 25.459C182.051 25.459 182.466 25.3418 182.827 25.1074C183.198 24.8633 183.486 24.5312 183.691 24.1113C183.906 23.6816 184.014 23.1934 184.014 22.6465C184.014 22.1191 183.906 21.6504 183.691 21.2402C183.486 20.8203 183.198 20.4932 182.827 20.2588C182.466 20.0146 182.051 19.8926 181.582 19.8926C181.113 19.8926 180.693 20.0146 180.322 20.2588C179.961 20.4932 179.673 20.8203 179.458 21.2402C179.253 21.6504 179.15 22.1191 179.15 22.6465C179.15 23.1934 179.253 23.6816 179.458 24.1113C179.673 24.5312 179.961 24.8633 180.322 25.1074C180.693 25.3418 181.113 25.459 181.582 25.459Z" fill="#C50014"/>
<path d="M20.5026 6.32849L33.8134 26.8902C34.0164 27.2038 34.1232 27.5594 34.1232 27.9215C34.1232 28.2835 34.0164 28.6392 33.8134 28.9527C33.6105 29.2663 33.3185 29.5266 32.967 29.7076C32.6155 29.8887 32.2167 29.984 31.8108 29.984H5.18927C4.78335 29.984 4.38458 29.8887 4.03304 29.7076C3.68151 29.5266 3.38959 29.2663 3.18663 28.9527C2.98368 28.6392 2.87683 28.2835 2.87683 27.9215C2.87683 27.5594 2.98369 27.2038 3.18665 26.8902L16.4974 6.32849C17.3869 4.95349 19.6116 4.95349 20.5026 6.32849ZM18.5 22.625C18.0911 22.625 17.699 22.7699 17.4099 23.0277C17.1208 23.2856 16.9584 23.6353 16.9584 24C16.9584 24.3647 17.1208 24.7144 17.4099 24.9723C17.699 25.2301 18.0911 25.375 18.5 25.375C18.9089 25.375 19.301 25.2301 19.5901 24.9723C19.8793 24.7144 20.0417 24.3647 20.0417 24C20.0417 23.6353 19.8793 23.2856 19.5901 23.0277C19.301 22.7699 18.9089 22.625 18.5 22.625ZM18.5 13C18.1224 13 17.758 13.1237 17.4758 13.3475C17.1936 13.5713 17.0133 13.8796 16.9691 14.2141L16.9584 14.375V19.875C16.9588 20.2255 17.1093 20.5625 17.379 20.8174C17.6487 21.0722 18.0174 21.2256 18.4097 21.2461C18.8019 21.2666 19.1882 21.1528 19.4895 20.9279C19.7908 20.7029 19.9845 20.3839 20.0309 20.0359L20.0417 19.875V14.375C20.0417 14.0103 19.8793 13.6606 19.5901 13.4027C19.301 13.1449 18.9089 13 18.5 13Z" fill="#C50014"/>
</svg>
