<svg width="446" height="573" viewBox="0 0 446 573" fill="none" xmlns="http://www.w3.org/2000/svg">
<path d="M0 489.413H41.194L38.614 503.173H21.5V512.633H37.582L35.002 526.393H21.5V537.573H41.796L39.216 551.333H4.73V501.195L0 489.413ZM66.1421 552.193C63.0461 552.193 60.1794 551.792 57.5421 550.989C54.9047 550.187 52.5827 548.839 50.5761 546.947C48.6267 545.055 47.1074 542.447 46.0181 539.121C44.9287 535.796 44.3841 531.611 44.3841 526.565C44.3841 521.635 45.0147 517.535 46.2761 514.267C47.5947 510.999 49.3721 508.419 51.6081 506.527C53.8441 504.635 56.3667 503.288 59.1761 502.485C61.9854 501.625 64.9381 501.195 68.0341 501.195C70.0407 501.195 71.8754 501.339 73.5381 501.625C75.2007 501.912 76.9207 502.342 78.6981 502.915V522.265H69.8401L68.1201 513.321C65.5401 513.321 63.5907 514.296 62.2721 516.245C61.0107 518.195 60.3801 521.692 60.3801 526.737C60.3801 530.349 60.8387 533.13 61.7561 535.079C62.6734 537.029 63.9634 538.347 65.6261 539.035C67.2887 539.723 69.2667 539.981 71.5601 539.809C73.8534 539.58 76.3474 539.121 79.0421 538.433V550.645C77.2647 551.161 75.1721 551.534 72.7641 551.763C70.3561 552.05 68.1487 552.193 66.1421 552.193ZM103.923 552.193C98.8203 552.193 94.6923 551.333 91.5389 549.613C88.4429 547.893 86.1783 545.17 84.7449 541.443C83.3689 537.659 82.6809 532.729 82.6809 526.651C82.6809 520.574 83.3689 515.672 84.7449 511.945C86.1783 508.219 88.4429 505.495 91.5389 503.775C94.6923 502.055 98.8203 501.195 103.923 501.195C109.083 501.195 113.211 502.055 116.307 503.775C119.403 505.495 121.639 508.219 123.015 511.945C124.448 515.672 125.165 520.574 125.165 526.651C125.165 532.729 124.448 537.659 123.015 541.443C121.639 545.17 119.403 547.893 116.307 549.613C113.211 551.333 109.083 552.193 103.923 552.193ZM103.837 540.067C105.786 540.067 107.162 539.035 107.965 536.971C108.768 534.85 109.169 531.439 109.169 526.737C109.169 521.979 108.768 518.567 107.965 516.503C107.162 514.382 105.786 513.321 103.837 513.321C101.945 513.321 100.598 514.382 99.7949 516.503C99.0496 518.567 98.6769 521.979 98.6769 526.737C98.6769 531.439 99.0496 534.85 99.7949 536.971C100.598 539.035 101.945 540.067 103.837 540.067ZM134.141 551.333L124.337 489.413H142.225L145.149 527.253L152.287 497.841H165.703L172.927 527.511L175.765 489.413H193.653L183.849 551.333H167.423L159.167 514.869L150.567 551.333H134.141ZM205.189 552.193C202.895 552.193 200.745 551.62 198.739 550.473C196.732 549.269 195.098 547.549 193.837 545.313C192.575 543.077 191.945 540.383 191.945 537.229C191.945 532.299 193.665 528.572 197.105 526.049C200.602 523.527 205.103 522.265 210.607 522.265H214.305V517.535C214.305 515.873 213.731 514.755 212.585 514.181C211.438 513.551 209.976 513.235 208.199 513.235C206.02 513.235 203.927 513.436 201.921 513.837C199.914 514.239 197.907 514.812 195.901 515.557V503.517C198.481 502.944 201.147 502.428 203.899 501.969C206.708 501.453 209.517 501.195 212.327 501.195C215.48 501.195 218.375 501.597 221.013 502.399C223.65 503.145 225.771 504.521 227.377 506.527C228.982 508.534 229.785 511.401 229.785 515.127V551.333H216.369L215.337 547.635C213.903 549.183 212.298 550.33 210.521 551.075C208.743 551.821 206.966 552.193 205.189 552.193ZM211.209 540.841C212.355 540.841 213.387 540.325 214.305 539.293V530.779H213.187C211.467 530.779 210.005 531.209 208.801 532.069C207.597 532.872 206.995 534.105 206.995 535.767C206.995 537.373 207.425 538.634 208.285 539.551C209.145 540.411 210.119 540.841 211.209 540.841ZM236.245 551.333V501.883H249.403L251.123 508.763H251.295C252.212 505.897 253.817 503.804 256.111 502.485C258.461 501.167 261.414 500.823 264.969 501.453V516.073C262.733 516.073 260.411 516.217 258.003 516.503C255.652 516.79 253.559 517.191 251.725 517.707V551.333H236.245ZM269.67 551.333V501.883H282.828L284.548 508.763H284.72C285.638 505.897 287.243 503.804 289.536 502.485C291.887 501.167 294.84 500.823 298.394 501.453V516.073C296.158 516.073 293.836 516.217 291.428 516.503C289.078 516.79 286.985 517.191 285.15 517.707V551.333H269.67ZM303.096 501.883H318.576V551.333H303.096V501.883ZM302.666 486.403H319.006V498.099H302.666V486.403ZM344.958 552.193C339.855 552.193 335.727 551.333 332.574 549.613C329.478 547.893 327.213 545.17 325.78 541.443C324.404 537.659 323.716 532.729 323.716 526.651C323.716 520.574 324.404 515.672 325.78 511.945C327.213 508.219 329.478 505.495 332.574 503.775C335.727 502.055 339.855 501.195 344.958 501.195C350.118 501.195 354.246 502.055 357.342 503.775C360.438 505.495 362.674 508.219 364.05 511.945C365.483 515.672 366.2 520.574 366.2 526.651C366.2 532.729 365.483 537.659 364.05 541.443C362.674 545.17 360.438 547.893 357.342 549.613C354.246 551.333 350.118 552.193 344.958 552.193ZM344.872 540.067C346.821 540.067 348.197 539.035 349 536.971C349.803 534.85 350.204 531.439 350.204 526.737C350.204 521.979 349.803 518.567 349 516.503C348.197 514.382 346.821 513.321 344.872 513.321C342.98 513.321 341.633 514.382 340.83 516.503C340.085 518.567 339.712 521.979 339.712 526.737C339.712 531.439 340.085 534.85 340.83 536.971C341.633 539.035 342.98 540.067 344.872 540.067ZM371.376 551.333V501.883H384.534L386.254 508.763H386.426C387.343 505.897 388.948 503.804 391.242 502.485C393.592 501.167 396.545 500.823 400.1 501.453V516.073C397.864 516.073 395.542 516.217 393.134 516.503C390.783 516.79 388.69 517.191 386.856 517.707V551.333H371.376ZM420.711 536.885C420.711 535.911 419.995 534.965 418.561 534.047L411.165 529.231C408.471 527.454 406.521 525.533 405.317 523.469C404.113 521.405 403.511 518.711 403.511 515.385C403.511 510.627 404.916 507.101 407.725 504.807C410.535 502.457 415.15 501.253 421.571 501.195C423.979 501.195 426.187 501.31 428.193 501.539C430.257 501.711 431.891 501.912 433.095 502.141C434.357 502.371 434.987 502.485 434.987 502.485L433.697 513.923C433.697 513.923 433.267 513.866 432.407 513.751C431.547 513.637 430.429 513.522 429.053 513.407C427.735 513.235 426.359 513.149 424.925 513.149C422.861 513.149 421.371 513.321 420.453 513.665C419.536 514.009 419.077 514.669 419.077 515.643C419.077 516.217 419.249 516.704 419.593 517.105C419.937 517.449 420.482 517.851 421.227 518.309L428.795 523.211C431.547 524.989 433.525 526.909 434.729 528.973C435.933 530.98 436.535 533.589 436.535 536.799C436.535 541.902 435.073 545.743 432.149 548.323C429.225 550.846 424.438 552.136 417.787 552.193C414.863 552.193 412.169 552.021 409.703 551.677C407.295 551.391 405.088 550.989 403.081 550.473L404.371 538.777C404.371 538.777 405.432 538.949 407.553 539.293C409.675 539.58 412.484 539.723 415.981 539.723C419.135 539.723 420.711 538.777 420.711 536.885Z" fill="white"/>
<path d="M222.5 0.333496C145.442 37.95 95.9933 55.6113 12 65.2945C12 144.05 16.9524 200.657 35.7658 252.575C51.1503 294.91 73.9404 333.649 102.891 366.673C149.502 420.124 200.783 448.28 222.5 455.061C244.217 448.28 295.498 420.124 342.109 366.673C371.06 333.649 393.85 294.91 409.234 252.575C428.048 200.657 433 144.05 433 65.2945C349.007 55.6113 299.558 37.95 222.5 0.333496Z" fill="white"/>
<path d="M223.012 40.7749C159.641 71.6188 118.975 86.1003 49.9003 94.0401C49.9003 158.616 53.9731 205.031 69.445 247.602C82.0969 282.315 100.839 314.079 124.648 341.157C162.979 384.985 205.152 408.072 223.012 413.631C240.872 408.072 283.045 384.985 321.377 341.157C345.185 314.079 363.928 282.315 376.579 247.602C392.051 205.031 396.124 158.616 396.124 94.0401C327.049 86.1003 286.384 71.6188 223.012 40.7749Z" fill="#0C0F4B"/>
<path d="M271.888 243.972C273.291 243.979 274.657 244.126 275.977 244.445C280.811 245.614 284.191 247.186 286.74 249.897C289.289 252.608 291.088 256.664 291.882 262.978C292.103 264.743 291.215 267.815 289.313 271.131C287.412 274.447 284.592 278.045 281.417 281.232L280.592 282.059L280.816 283.1C281.843 287.86 282.024 296.442 280.9 301.197C280.623 302.369 278.989 305.012 276.389 308.117C273.789 311.221 270.288 314.913 266.437 318.89C258.736 326.844 249.643 335.934 243.303 344.294C243.295 344.304 243.188 344.432 242.594 344.527C242 344.622 241.068 344.601 240.232 344.435C239.423 344.275 238.733 343.97 238.463 343.788C241.759 332.662 243.812 321.637 250.893 310.861L254.241 305.767L247.345 307.508C240.174 309.319 231.201 309.849 223.023 309.539C214.844 309.229 207.361 308.044 203.514 306.813L201.643 306.214L200.246 307.371C185.922 319.235 175.913 333.17 162.917 344.454C162.877 344.489 162.963 344.496 162.615 344.478C162.267 344.459 161.621 344.29 161.056 343.974C160.491 343.658 160.026 343.216 159.822 342.86C159.618 342.504 159.604 342.311 159.733 342.031C166.492 327.431 169.862 313.115 180.227 299.337L180.924 298.41L180.5 297.384C178.223 291.879 174.584 286.131 166.282 281.517L164.78 280.681L163.162 281.37C159.366 282.987 156.825 282.915 154.649 281.879C150.297 279.807 146.646 275.596 145.163 271.937L150.057 269.751L150.369 268.765C151.703 264.565 153.105 262.06 155.216 260.156C157.327 258.251 160.377 256.762 165.481 255.013L167.611 254.284L167.245 252.466C166.95 251 167.228 249.445 167.637 247.79C179.643 255.662 185.165 264.736 196.313 274.126L197.373 275.018L198.901 274.846C218.069 272.692 246.266 273.463 264.667 275.224C266.671 275.415 268.399 274.924 270.082 274.242C271.765 273.559 273.395 272.61 274.879 271.481C277.847 269.222 280.492 266.253 280.185 262.73C279.968 260.25 279.296 258.244 277.863 256.675C276.43 255.107 274.175 254.193 271.959 253.973C267.529 253.534 263.04 254.982 258.022 256.615C247.985 259.882 236.154 264.248 227.195 262.329C223.698 261.58 217.03 257.043 212.481 252.374C210.207 250.039 208.358 247.674 207.386 245.92C206.942 245.12 206.719 244.476 206.643 244.098C206.811 244.071 207.025 244.056 207.424 244.077C208.307 244.125 209.766 244.439 211.586 245.081C215.226 246.364 220.281 248.876 226.391 252.158C230.362 254.291 235.013 254.365 239.312 253.514C243.612 252.663 247.843 250.981 252.097 249.293C258.478 246.762 264.761 244.344 270.473 244.011C270.944 243.983 271.416 243.97 271.888 243.972ZM158.19 263.182L154.932 269.003L162.379 268.079L158.19 263.182ZM283.413 308.186C288.13 321.087 295.193 333.728 301.849 343.168C301.854 343.175 301.856 343.172 301.859 343.175C301.841 343.191 301.828 343.21 301.818 343.23C301.733 343.386 301.389 343.746 300.872 344.028C300.355 344.311 299.695 344.509 299.233 344.557C298.772 344.604 298.625 344.528 298.623 344.527C287.466 337.971 279.165 329.949 270.962 321.985L271.166 321.776C275.037 317.778 278.598 314.033 281.356 310.739C282.101 309.849 282.788 309.003 283.413 308.186ZM301.859 343.175C301.895 343.145 301.892 343.204 301.859 343.175V343.175ZM203.312 311.736C205.674 312.358 208.459 312.895 211.551 313.32C215.666 323.869 222.595 333.809 228.851 342.95L228.897 343.018L228.95 343.084C229.053 343.213 229.033 343.133 228.966 343.29C228.899 343.447 228.631 343.766 228.214 344.002C227.381 344.475 226.616 344.627 225.825 344.063L225.81 344.052L225.794 344.041C215.095 336.629 206.158 327.87 197.546 316.974C199.408 315.185 201.322 313.434 203.312 311.736Z" fill="white"/>
<path d="M166.149 108.317L154.531 118.68C157.215 119.27 159.705 120.722 161.731 122.579C163.293 124.027 164.635 125.743 165.538 127.623L173.373 119.296L161.828 122.654L166.149 108.317ZM151.943 122.621C149.991 122.621 147.794 123.51 145.841 124.967C143.742 126.518 142.034 128.728 141.204 130.796C140.032 133.71 141.009 139.798 142.668 144.898C143.889 148.729 145.085 151.385 145.719 152.772L153.505 151.691L156.337 152.02L155.019 143.77L155.751 143.018C155.751 143.018 157.655 141.067 159.437 138.552C161.243 136.061 162.561 132.911 162.341 131.76C161.999 129.715 160.608 127.411 158.68 125.649C156.776 123.886 154.384 122.746 152.334 122.631H151.943V122.621ZM183.088 128.117C180.549 128.211 177.816 129.292 175.35 131.055C172.519 133.099 170.152 135.99 168.931 138.717V138.74C168.004 140.762 168.443 145.509 169.493 149.505C169.932 151.197 170.347 152.537 170.737 153.642L180.696 154.77L165.587 157.332L153.554 155.969L112.442 161.61L132.832 168.661L159.485 164.289L133.613 177.005L105.378 162.597L98.3167 163.56L100.369 170.941L93.2252 168.144L102.478 178.532L103.633 182.693L114.331 187.605L129.732 183.727L115.868 193.575L105.576 189.697L108.226 199.239L114.087 200.885L103.838 204.927L127.609 205.021L114.721 210.169L140.862 208.382C158.777 214.446 162.902 213.647 183.161 215.457L166.515 209.464L172.446 206.502L158.314 197.195C177.327 202.859 184.65 201.073 203.127 197.735L192.826 196.278L205.47 189.932L205.567 186.947L212.28 173.409L205.86 177.78L206.104 170.87L190.679 182.975L163.098 174.889L191.46 176.746L206.129 169.953L206.251 166.639L210.181 157.026L202.712 161.516L193.656 160.505L174.765 162.55C174.765 162.55 180.159 160.928 185.236 159.447L195.975 152.185L183.332 154.323L182.648 147.601L184.503 147.178C184.503 147.178 187.725 146.45 190.972 145.11C192.607 144.452 194.193 143.606 195.316 142.759C196.439 141.913 196.951 141.114 197.025 140.621C197.342 138.153 195.853 135.144 193.241 132.676C190.63 130.208 186.993 128.422 184.137 128.164C183.796 128.117 183.454 128.117 183.088 128.117ZM149.6 128.493C151.577 128.493 153.188 129.879 153.188 131.572C153.188 133.264 151.577 134.651 149.6 134.651C147.623 134.651 146.012 133.264 146.012 131.572C146.012 129.879 147.623 128.493 149.6 128.493ZM183.185 132.441C185.333 132.441 187.091 134.134 187.091 136.202C187.091 138.27 185.333 139.963 183.185 139.963C181.037 139.963 179.28 138.27 179.28 136.202C179.28 134.134 181.037 132.441 183.185 132.441ZM119.92 132.794C119.578 132.794 119.212 132.794 118.871 132.841C116.015 133.099 112.381 134.886 109.769 137.354C107.155 139.822 105.663 142.83 105.991 145.298C106.059 145.791 106.564 146.591 107.684 147.437C108.805 148.283 110.411 149.129 112.034 149.787C115.283 151.127 118.504 151.855 118.504 151.855L120.359 152.279L119.969 156.298L133.442 154.441C133.467 154.347 133.491 154.276 133.515 154.182C134.565 150.187 135.004 145.439 134.077 143.418V143.394C132.856 140.668 130.464 137.753 127.657 135.732C125.192 133.946 122.459 132.864 119.92 132.794ZM200.954 136.648C201.418 138.082 201.589 139.61 201.369 141.138C201.32 141.49 201.247 141.819 201.15 142.125L209.668 139.563L200.954 136.648ZM123.435 136.742C125.583 136.742 127.34 138.435 127.34 140.503C127.34 142.571 125.583 144.264 123.435 144.264C121.287 144.264 119.53 142.571 119.53 140.503C119.53 138.435 121.287 136.742 123.435 136.742ZM104.136 137.236L94.3407 138.834L101.753 142.477C102.127 140.621 102.986 138.858 104.136 137.236ZM139.544 185.842L157.411 189.086L176.449 186.97L157.02 194.21L139.544 185.842Z" fill="white"/>
<path d="M349.868 120.012C347.866 120.756 345.919 122.465 344.306 124.42C345.585 129.668 343.027 135.348 340.997 139.418C346.392 139.258 355.736 141.106 360.018 138.803C365.135 136.044 369.751 126.428 368.305 121.742C363.077 120.47 354.317 118.574 349.868 120.012ZM308.349 122.304L307.876 125.678C311.297 126.455 314.384 127.66 317.248 129.561C317.693 126.562 318.499 123.937 320.668 122.25C316.58 121.983 312.298 122.009 308.349 122.304ZM362.104 122.84C358.183 124.982 354.345 126.508 352.538 128.838C350.758 127.338 349.618 125.625 350.146 123.241C354.067 121.608 358.266 121.983 362.104 122.84ZM303.232 122.84C300.229 123.214 297.253 123.75 294.278 124.473C297.281 124.5 300.368 124.607 302.926 124.875L303.232 122.84ZM323.588 126.214C321.28 130.769 322.726 133.875 324.589 137.437C327.037 133.42 329.178 129.133 330.986 124.661C328.483 124.179 325.257 124.527 323.588 126.214ZM336.408 124.553C320.196 167.242 275.395 191.664 236.21 188.799C236.543 198.6 253.018 194.449 258.999 193.378C273.504 190.7 292.22 184.541 305.624 173.401C316.386 164.484 326.286 153.879 332.932 143.623C334.99 139.231 340.969 131.063 339.606 126.026C339.161 124.821 337.632 124.821 336.408 124.553ZM285.852 129.751C288.827 131.331 291.386 133.286 293.833 135.161C294.778 133.206 296.224 131.251 298.366 129.374C294.278 129.213 289.606 129.427 285.852 129.751ZM305.763 130.153C300.618 132.991 298.672 135.562 297.865 138.267C300.674 140.945 303.733 144.667 306.236 147.961C305.985 141.614 311.742 136.151 316.469 135.107C313.382 132.322 310.101 131.01 305.763 130.153ZM277.564 131.76C277.175 135.187 276.786 138.642 277.286 141.882C280.234 139.07 284.461 137.464 288.076 137.008C284.823 134.652 281.597 132.643 277.564 131.76ZM272.225 134.491C268.832 138.374 265.913 142.953 263.382 147.399C265.968 146.247 269.027 145.417 272.92 145.229C271.836 141.534 271.919 137.865 272.225 134.491ZM313.688 141.4C310.101 144.56 311.297 149.809 312.214 153.558C316.358 149.246 320.112 144.506 323.366 139.418C320.14 139.472 316.163 139.552 313.688 141.4ZM278.482 148.202C278.343 153.103 279.734 158.994 281.458 163.68C285.74 154.843 292.998 150.21 302.259 150.933C299.867 147.827 297.031 144.373 294.639 141.989C287.798 141.454 281.986 142.311 278.482 148.202ZM260.601 142.284C257.492 145.042 254.706 147.934 252.228 150.907C253.279 151.014 254.327 151.308 255.342 151.764C256.891 148.845 258.638 145.578 260.601 142.284ZM273.477 149.969C265.69 150.103 262.687 152.969 258.638 156.45C257.283 161.94 256.802 167.376 257.211 172.651C262.131 166.626 269.528 163.198 276.73 165.341C275.034 160.788 273.643 155.272 273.477 149.969ZM291.997 158.03C287.937 160.788 285.212 165.849 284.35 171.634L283.961 174.151C292.776 169.839 301.063 164.189 308.405 157.307C302.732 155.165 296.808 154.816 291.997 158.03ZM247.584 157.066C244.616 161.458 242.267 165.983 240.484 170.536C245.434 169.304 249.822 172.009 252.439 175.249C251.683 169.036 252.069 162.636 253.554 156.262C251.441 155.111 249.235 155.914 247.584 157.066ZM330.096 156.182C327.648 159.315 325.034 162.368 322.281 165.287C324.228 169.92 323.978 175.329 321.864 179.426C319.25 184.488 314.912 188.451 311.603 195.708C310.212 198.895 308.46 212.445 312.604 212.659C325.73 205.402 340.496 188.531 341.247 174.526C339.412 167.001 335.046 161.538 330.096 156.182ZM267.081 170.616C263.104 172.517 259.377 176.748 257.425 182.854C265.746 181.408 274.088 178.784 282.07 175.061C277.481 170.455 272.698 167.911 267.081 170.616ZM242.773 174.927C237.923 176.052 237.45 179.935 236.794 183.979C241.557 184.327 246.424 184.22 251.321 183.711C250.237 179.748 247.091 174.954 242.773 174.927ZM271.252 195.44C268.582 196.19 265.968 196.859 263.41 197.422C261.185 201.278 257.712 206.553 257.186 211.026C257.392 215.578 258.582 219.568 260.128 223.451C273.004 214.694 274.533 205.938 271.252 195.44Z" fill="white"/>
</svg>
