<svg width="276" height="59" viewBox="0 0 276 59" fill="none" xmlns="http://www.w3.org/2000/svg">
<path d="M71 16.2H90.16L88.96 22.6H81V27H88.48L87.28 33.4H81V38.6H90.44L89.24 45H73.2V21.68L71 16.2ZM101.764 45.4C100.324 45.4 98.9904 45.2133 97.7638 44.84C96.5371 44.4667 95.4571 43.84 94.5238 42.96C93.6171 42.08 92.9104 40.8667 92.4038 39.32C91.8971 37.7733 91.6438 35.8267 91.6438 33.48C91.6438 31.1867 91.9371 29.28 92.5238 27.76C93.1371 26.24 93.9638 25.04 95.0038 24.16C96.0438 23.28 97.2171 22.6533 98.5238 22.28C99.8304 21.88 101.204 21.68 102.644 21.68C103.577 21.68 104.43 21.7467 105.204 21.88C105.977 22.0133 106.777 22.2133 107.604 22.48V31.48H103.484L102.684 27.32C101.484 27.32 100.577 27.7733 99.9638 28.68C99.3771 29.5867 99.0838 31.2133 99.0838 33.56C99.0838 35.24 99.2971 36.5333 99.7238 37.44C100.15 38.3467 100.75 38.96 101.524 39.28C102.297 39.6 103.217 39.72 104.284 39.64C105.35 39.5333 106.51 39.32 107.764 39V44.68C106.937 44.92 105.964 45.0933 104.844 45.2C103.724 45.3333 102.697 45.4 101.764 45.4ZM119.336 45.4C116.963 45.4 115.043 45 113.576 44.2C112.136 43.4 111.083 42.1333 110.416 40.4C109.776 38.64 109.456 36.3467 109.456 33.52C109.456 30.6933 109.776 28.4133 110.416 26.68C111.083 24.9467 112.136 23.68 113.576 22.88C115.043 22.08 116.963 21.68 119.336 21.68C121.736 21.68 123.656 22.08 125.096 22.88C126.536 23.68 127.576 24.9467 128.216 26.68C128.883 28.4133 129.216 30.6933 129.216 33.52C129.216 36.3467 128.883 38.64 128.216 40.4C127.576 42.1333 126.536 43.4 125.096 44.2C123.656 45 121.736 45.4 119.336 45.4ZM119.296 39.76C120.203 39.76 120.843 39.28 121.216 38.32C121.59 37.3333 121.776 35.7467 121.776 33.56C121.776 31.3467 121.59 29.76 121.216 28.8C120.843 27.8133 120.203 27.32 119.296 27.32C118.416 27.32 117.79 27.8133 117.416 28.8C117.07 29.76 116.896 31.3467 116.896 33.56C116.896 35.7467 117.07 37.3333 117.416 38.32C117.79 39.28 118.416 39.76 119.296 39.76ZM133.391 45L128.831 16.2H137.151L138.511 33.8L141.831 20.12H148.071L151.431 33.92L152.751 16.2H161.071L156.511 45H148.871L145.031 28.04L141.031 45H133.391ZM166.437 45.4C165.37 45.4 164.37 45.1333 163.437 44.6C162.503 44.04 161.743 43.24 161.157 42.2C160.57 41.16 160.277 39.9067 160.277 38.44C160.277 36.1467 161.077 34.4133 162.677 33.24C164.303 32.0667 166.397 31.48 168.957 31.48H170.677V29.28C170.677 28.5067 170.41 27.9867 169.877 27.72C169.343 27.4267 168.663 27.28 167.837 27.28C166.823 27.28 165.85 27.3733 164.917 27.56C163.983 27.7467 163.05 28.0133 162.117 28.36V22.76C163.317 22.4933 164.557 22.2533 165.837 22.04C167.143 21.8 168.45 21.68 169.757 21.68C171.223 21.68 172.57 21.8667 173.797 22.24C175.023 22.5867 176.01 23.2267 176.757 24.16C177.503 25.0933 177.877 26.4267 177.877 28.16V45H171.637L171.157 43.28C170.49 44 169.743 44.5333 168.917 44.88C168.09 45.2267 167.263 45.4 166.437 45.4ZM169.237 40.12C169.77 40.12 170.25 39.88 170.677 39.4V35.44H170.157C169.357 35.44 168.677 35.64 168.117 36.04C167.557 36.4133 167.277 36.9867 167.277 37.76C167.277 38.5067 167.477 39.0933 167.877 39.52C168.277 39.92 168.73 40.12 169.237 40.12ZM180.881 45V22H187.001L187.801 25.2H187.881C188.308 23.8667 189.055 22.8933 190.121 22.28C191.215 21.6667 192.588 21.5067 194.241 21.8V28.6C193.201 28.6 192.121 28.6667 191.001 28.8C189.908 28.9333 188.935 29.12 188.081 29.36V45H180.881ZM196.428 45V22H202.548L203.348 25.2H203.428C203.855 23.8667 204.601 22.8933 205.668 22.28C206.761 21.6667 208.135 21.5067 209.788 21.8V28.6C208.748 28.6 207.668 28.6667 206.548 28.8C205.455 28.9333 204.481 29.12 203.628 29.36V45H196.428ZM211.975 22H219.175V45H211.975V22ZM211.775 14.8H219.375V20.24H211.775V14.8ZM231.446 45.4C229.072 45.4 227.152 45 225.686 44.2C224.246 43.4 223.192 42.1333 222.526 40.4C221.886 38.64 221.566 36.3467 221.566 33.52C221.566 30.6933 221.886 28.4133 222.526 26.68C223.192 24.9467 224.246 23.68 225.686 22.88C227.152 22.08 229.072 21.68 231.446 21.68C233.846 21.68 235.766 22.08 237.206 22.88C238.646 23.68 239.686 24.9467 240.326 26.68C240.992 28.4133 241.326 30.6933 241.326 33.52C241.326 36.3467 240.992 38.64 240.326 40.4C239.686 42.1333 238.646 43.4 237.206 44.2C235.766 45 233.846 45.4 231.446 45.4ZM231.406 39.76C232.312 39.76 232.952 39.28 233.326 38.32C233.699 37.3333 233.886 35.7467 233.886 33.56C233.886 31.3467 233.699 29.76 233.326 28.8C232.952 27.8133 232.312 27.32 231.406 27.32C230.526 27.32 229.899 27.8133 229.526 28.8C229.179 29.76 229.006 31.3467 229.006 33.56C229.006 35.7467 229.179 37.3333 229.526 38.32C229.899 39.28 230.526 39.76 231.406 39.76ZM243.733 45V22H249.853L250.653 25.2H250.733C251.159 23.8667 251.906 22.8933 252.973 22.28C254.066 21.6667 255.439 21.5067 257.093 21.8V28.6C256.053 28.6 254.973 28.6667 253.853 28.8C252.759 28.9333 251.786 29.12 250.933 29.36V45H243.733ZM266.68 38.28C266.68 37.8267 266.346 37.3867 265.68 36.96L262.24 34.72C260.986 33.8933 260.08 33 259.52 32.04C258.96 31.08 258.68 29.8267 258.68 28.28C258.68 26.0667 259.333 24.4267 260.64 23.36C261.946 22.2667 264.093 21.7067 267.08 21.68C268.2 21.68 269.226 21.7333 270.16 21.84C271.12 21.92 271.88 22.0133 272.44 22.12C273.026 22.2267 273.32 22.28 273.32 22.28L272.72 27.6C272.72 27.6 272.52 27.5733 272.12 27.52C271.72 27.4667 271.2 27.4133 270.56 27.36C269.946 27.28 269.306 27.24 268.64 27.24C267.68 27.24 266.986 27.32 266.56 27.48C266.133 27.64 265.92 27.9467 265.92 28.4C265.92 28.6667 266 28.8933 266.16 29.08C266.32 29.24 266.573 29.4267 266.92 29.64L270.44 31.92C271.72 32.7467 272.64 33.64 273.2 34.6C273.76 35.5333 274.04 36.7467 274.04 38.24C274.04 40.6133 273.36 42.4 272 43.6C270.64 44.7733 268.413 45.3733 265.32 45.4C263.96 45.4 262.706 45.32 261.56 45.16C260.44 45.0267 259.413 44.84 258.48 44.6L259.08 39.16C259.08 39.16 259.573 39.24 260.56 39.4C261.546 39.5333 262.853 39.6 264.48 39.6C265.946 39.6 266.68 39.16 266.68 38.28Z" fill="white"/>
<path d="M27 0C17.1161 4.82492 10.7735 7.09026 0 8.33229C0 18.4339 0.635223 25.6947 3.04835 32.354C5.02165 37.7842 7.94485 42.753 11.6582 46.9889C17.6368 53.8448 24.2144 57.4564 27 58.326C29.7856 57.4564 36.3632 53.8448 42.3418 46.9889C46.0551 42.753 48.9784 37.7842 50.9517 32.354C53.3648 25.6947 54 18.4339 54 8.33229C43.2265 7.09026 36.8839 4.82492 27 0Z" fill="white"/>
<path d="M27.0657 5.18735C18.9373 9.14357 13.7213 11.0011 4.86132 12.0195C4.86132 20.3023 5.38372 26.2559 7.36824 31.7162C8.99105 36.1688 11.395 40.243 14.4489 43.7162C19.3655 49.3378 24.7749 52.2991 27.0657 53.0122C29.3565 52.2991 34.7659 49.3378 39.6825 43.7162C42.7364 40.243 45.1404 36.1688 46.7632 31.7162C48.7477 26.2559 49.2701 20.3023 49.2701 12.0195C40.4101 11.0011 35.1941 9.14357 27.0657 5.18735Z" fill="#0C0F4B"/>
<path d="M33.3348 31.2506C33.5148 31.2515 33.69 31.2704 33.8592 31.3114C34.4794 31.4612 34.9129 31.6629 35.2398 32.0106C35.5667 32.3583 35.7976 32.8786 35.8993 33.6884C35.9277 33.9148 35.8138 34.3089 35.5699 34.7342C35.326 35.1595 34.9643 35.621 34.557 36.0298L34.4512 36.136L34.48 36.2695C34.6116 36.88 34.6349 37.9808 34.4907 38.5907C34.4552 38.741 34.2456 39.08 33.9122 39.4782C33.5787 39.8765 33.1295 40.35 32.6356 40.8601C31.6478 41.8804 30.4815 43.0462 29.6683 44.1186C29.6672 44.1199 29.6535 44.1363 29.5773 44.1485C29.5012 44.1607 29.3816 44.1579 29.2744 44.1367C29.1707 44.1161 29.0821 44.0771 29.0475 44.0537C29.4703 42.6265 29.7336 41.2124 30.6419 39.8302L31.0713 39.1769L30.1868 39.4002C29.267 39.6325 28.116 39.7005 27.067 39.6607C26.018 39.6209 25.0582 39.469 24.5648 39.311L24.3247 39.2341L24.1455 39.3825C22.3082 40.9043 21.0245 42.6917 19.3575 44.1391C19.3524 44.1436 19.3634 44.1445 19.3188 44.1421C19.2742 44.1397 19.1913 44.118 19.1188 44.0775C19.0463 44.037 18.9868 43.9802 18.9606 43.9346C18.9343 43.8889 18.9326 43.8642 18.9492 43.8283C19.8161 41.9556 20.2484 40.1194 21.5778 38.3521L21.6671 38.2332L21.6128 38.1016C21.3208 37.3955 20.854 36.6582 19.7892 36.0664L19.5964 35.9592L19.389 36.0475C18.9021 36.2549 18.5761 36.2457 18.297 36.1129C17.7388 35.8471 17.2705 35.3069 17.0802 34.8376L17.708 34.5572L17.748 34.4307C17.9191 33.8921 18.0989 33.5708 18.3697 33.3265C18.6405 33.0822 19.0318 32.8912 19.6864 32.6669L19.9596 32.5733L19.9126 32.3401C19.8748 32.1521 19.9104 31.9526 19.963 31.7404C21.5029 32.7501 22.2112 33.9139 23.6411 35.1183L23.777 35.2328L23.9731 35.2107C26.4316 34.9344 30.0483 35.0333 32.4086 35.2592C32.6656 35.2838 32.8873 35.2207 33.1032 35.1332C33.319 35.0457 33.5281 34.924 33.7185 34.7791C34.0992 34.4894 34.4384 34.1085 34.399 33.6567C34.3712 33.3385 34.2849 33.0813 34.1012 32.8801C33.9174 32.6789 33.6281 32.5617 33.3439 32.5334C32.7757 32.4771 32.1998 32.6628 31.5562 32.8723C30.2689 33.2913 28.7514 33.8514 27.6022 33.6052C27.1536 33.5091 26.2984 32.9272 25.715 32.3283C25.4232 32.0289 25.1861 31.7255 25.0613 31.5005C25.0044 31.3979 24.9758 31.3153 24.9661 31.2669C24.9877 31.2633 25.0151 31.2614 25.0662 31.2642C25.1795 31.2703 25.3667 31.3106 25.6001 31.3929C26.067 31.5575 26.7153 31.8797 27.4991 32.3006C28.0085 32.5743 28.6049 32.5837 29.1565 32.4746C29.708 32.3654 30.2507 32.1497 30.7963 31.9332C31.6148 31.6086 32.4206 31.2984 33.1533 31.2556C33.2137 31.252 33.2743 31.2504 33.3348 31.2506ZM18.7512 33.7146L18.3333 34.4613L19.2886 34.3427L18.7512 33.7146ZM34.813 39.4871C35.4181 41.1418 36.324 42.7633 37.1778 43.9741C37.1784 43.975 37.1786 43.9746 37.179 43.9751C37.1768 43.9771 37.1751 43.9795 37.1739 43.982C37.1629 44.002 37.1188 44.0482 37.0525 44.0845C36.9861 44.1207 36.9014 44.1462 36.8423 44.1523C36.7831 44.1583 36.7642 44.1485 36.7641 44.1484C35.3329 43.3076 34.2682 42.2786 33.2161 41.2571L33.2421 41.2303C33.7387 40.7174 34.1954 40.2371 34.5492 39.8146C34.6448 39.7004 34.7329 39.5919 34.813 39.4871ZM37.1791 43.9751C37.1837 43.9712 37.1833 43.9788 37.1791 43.9751V43.9751ZM24.5388 39.9424C24.8418 40.0223 25.1991 40.0912 25.5956 40.1457C26.1235 41.4987 27.0122 42.7737 27.8146 43.9461L27.8206 43.9549L27.8273 43.9633C27.8405 43.9799 27.838 43.9696 27.8294 43.9897C27.8207 44.0099 27.7864 44.0508 27.7329 44.0811C27.626 44.1417 27.528 44.1612 27.4265 44.0889L27.4245 44.0875L27.4225 44.0861C26.0502 43.1354 24.9039 42.0119 23.7992 40.6144C24.0381 40.3849 24.2836 40.1602 24.5388 39.9424Z" fill="white"/>
<g clip-path="url(#clip0_11_81)">
<path d="M19.772 13.8506L18.2818 15.1799C18.6262 15.2555 18.9455 15.4418 19.2054 15.68C19.4057 15.8657 19.5779 16.0858 19.6938 16.327L20.6987 15.2588L19.2179 15.6896L19.772 13.8506ZM17.95 15.6854C17.6995 15.6854 17.4178 15.7994 17.1673 15.9863C16.8981 16.1853 16.6789 16.4687 16.5725 16.734C16.4222 17.1078 16.5474 17.8886 16.7603 18.5428C16.9168 19.0342 17.0702 19.3749 17.1516 19.5527L18.1503 19.4141L18.5135 19.4563L18.3444 18.3981L18.4384 18.3016C18.4384 18.3016 18.6826 18.0514 18.9111 17.7288C19.1428 17.4093 19.3118 17.0053 19.2836 16.8576C19.2398 16.5953 19.0614 16.2998 18.814 16.0737C18.5698 15.8476 18.263 15.7014 18.0001 15.6866H17.95V15.6854ZM21.9447 16.3903C21.6192 16.4023 21.2685 16.541 20.9523 16.7671C20.5892 17.0294 20.2855 17.4002 20.1289 17.7499V17.7529C20.01 18.0122 20.0663 18.6212 20.2009 19.1337C20.2573 19.3508 20.3105 19.5226 20.3606 19.6643L21.6379 19.809L19.7 20.1376L18.1566 19.9628L12.8832 20.6863L15.4986 21.5907L18.9174 21.03L15.5988 22.661L11.9772 20.8129L11.0715 20.9365L11.3348 21.8831L10.4184 21.5244L11.6053 22.8569L11.7534 23.3905L13.1256 24.0206L15.101 23.5232L13.3228 24.7864L12.0026 24.2889L12.3426 25.5129L13.0942 25.7239L11.7797 26.2425L14.8287 26.2545L13.1756 26.9148L16.5286 26.6856C18.8266 27.4635 19.3557 27.361 21.9541 27.5931L19.819 26.8243L20.5798 26.4445L18.7671 25.2506C21.2059 25.9772 22.1451 25.7481 24.5151 25.32L23.1939 25.133L24.8156 24.3191L24.8281 23.9362L25.6891 22.1997L24.8657 22.7604L24.897 21.8741L22.9184 23.4267L19.3807 22.3896L23.0186 22.6278L24.9001 21.7565L24.9158 21.3314L25.4198 20.0984L24.4618 20.6742L23.3003 20.5446L20.8772 20.8069C20.8772 20.8069 21.5691 20.5989 22.2202 20.4089L23.5978 19.4774L21.9761 19.7517L21.8884 18.8895L22.1263 18.8352C22.1263 18.8352 22.5396 18.7418 22.956 18.5699C23.1657 18.4855 23.3692 18.377 23.5132 18.2685C23.6572 18.1599 23.723 18.0574 23.7324 17.9941C23.7731 17.6776 23.5821 17.2917 23.2471 16.9751C22.9121 16.6586 22.4457 16.4295 22.0794 16.3963C22.0355 16.3903 21.9917 16.3903 21.9447 16.3903ZM17.6494 16.4385C17.903 16.4385 18.1096 16.6164 18.1096 16.8334C18.1096 17.0505 17.903 17.2284 17.6494 17.2284C17.3958 17.2284 17.1892 17.0505 17.1892 16.8334C17.1892 16.6164 17.3958 16.4385 17.6494 16.4385ZM21.9573 16.945C22.2328 16.945 22.4582 17.162 22.4582 17.4273C22.4582 17.6926 22.2328 17.9097 21.9573 17.9097C21.6818 17.9097 21.4564 17.6926 21.4564 17.4273C21.4564 17.162 21.6818 16.945 21.9573 16.945ZM13.8425 16.9902C13.7987 16.9902 13.7517 16.9902 13.7079 16.9962C13.3416 17.0294 12.8754 17.2585 12.5404 17.5751C12.2051 17.8916 12.0138 18.2775 12.0558 18.5941C12.0646 18.6574 12.1294 18.7599 12.2731 18.8684C12.4168 18.9769 12.6228 19.0855 12.831 19.1699C13.2477 19.3417 13.6609 19.4352 13.6609 19.4352L13.8988 19.4894L13.8487 20.005L15.5769 19.7668C15.58 19.7547 15.5832 19.7457 15.5863 19.7336C15.7209 19.2211 15.7773 18.6121 15.6583 18.3529V18.3499C15.5018 18.0001 15.195 17.6263 14.8349 17.3671C14.5187 17.1379 14.1681 16.9993 13.8425 16.9902ZM24.2364 17.4846C24.2959 17.6685 24.3178 17.8645 24.2896 18.0604C24.2834 18.1057 24.274 18.1479 24.2615 18.1871L25.3541 17.8585L24.2364 17.4846ZM14.2933 17.4967C14.5688 17.4967 14.7942 17.7137 14.7942 17.979C14.7942 18.2443 14.5688 18.4614 14.2933 18.4614C14.0178 18.4614 13.7924 18.2443 13.7924 17.979C13.7924 17.7137 14.0178 17.4967 14.2933 17.4967ZM11.8179 17.56L10.5615 17.765L11.5123 18.2323C11.5602 17.9941 11.6704 17.768 11.8179 17.56ZM16.3596 23.7945L18.6512 24.2105L21.0932 23.9392L18.6012 24.8678L16.3596 23.7945Z" fill="white"/>
</g>
<g clip-path="url(#clip1_11_81)">
<path d="M43.337 15.3506C43.0801 15.4461 42.8305 15.6652 42.6236 15.916C42.7877 16.5892 42.4595 17.3177 42.1991 17.8398C42.8911 17.8192 44.0896 18.0562 44.6389 17.7608C45.2952 17.407 45.8873 16.1736 45.7019 15.5725C45.0313 15.4093 43.9077 15.1661 43.337 15.3506ZM38.0115 15.6446L37.9509 16.0774C38.3896 16.177 38.7855 16.3316 39.1529 16.5755C39.21 16.1907 39.3135 15.8541 39.5917 15.6377C39.0673 15.6034 38.518 15.6068 38.0115 15.6446ZM44.9064 15.7133C44.4035 15.9881 43.9112 16.1839 43.6794 16.4827C43.4511 16.2904 43.3049 16.0705 43.3726 15.7648C43.8756 15.5553 44.4142 15.6034 44.9064 15.7133ZM37.3552 15.7133C36.97 15.7614 36.5883 15.8301 36.2066 15.9228C36.5919 15.9263 36.9878 15.94 37.316 15.9744L37.3552 15.7133ZM39.9662 16.1461C39.6701 16.7304 39.8556 17.1288 40.0946 17.5856C40.4085 17.0704 40.6832 16.5205 40.915 15.9469C40.594 15.885 40.1802 15.9297 39.9662 16.1461ZM41.6106 15.9331C39.531 21.4086 33.7847 24.5412 28.7585 24.1737C28.8013 25.4308 30.9144 24.8984 31.6816 24.761C33.5421 24.4175 35.9427 23.6275 37.662 22.1986C39.0424 21.0548 40.3122 19.6946 41.1647 18.3791C41.4286 17.8158 42.1955 16.7681 42.0208 16.1221C41.9637 15.9675 41.7675 15.9675 41.6106 15.9331ZM35.1259 16.5998C35.5075 16.8025 35.8357 17.0532 36.1496 17.2937C36.2708 17.0429 36.4563 16.7922 36.731 16.5514C36.2066 16.5308 35.6074 16.5583 35.1259 16.5998ZM37.6798 16.6514C37.0199 17.0155 36.7702 17.3452 36.6668 17.6921C37.027 18.0356 37.4194 18.513 37.7404 18.9355C37.7083 18.1215 38.4467 17.4208 39.0531 17.2868C38.6571 16.9296 38.2362 16.7613 37.6798 16.6514ZM34.0629 16.8575C34.013 17.2971 33.963 17.7402 34.0272 18.1558C34.4053 17.7952 34.9475 17.5891 35.4112 17.5307C34.9939 17.2284 34.5801 16.9708 34.0629 16.8575ZM33.378 17.2078C32.9429 17.7059 32.5684 18.2932 32.2438 18.8634C32.5755 18.7157 32.9679 18.6092 33.4672 18.5852C33.3281 18.1112 33.3388 17.6406 33.378 17.2078ZM38.6964 18.094C38.2362 18.4993 38.3896 19.1725 38.5073 19.6534C39.0388 19.1004 39.5203 18.4924 39.9377 17.8398C39.5239 17.8467 39.0138 17.857 38.6964 18.094ZM34.1806 18.9664C34.1628 19.595 34.3411 20.3507 34.5623 20.9518C35.1116 19.8183 36.0426 19.2241 37.2304 19.3168C36.9236 18.9184 36.5598 18.4753 36.253 18.1696C35.3755 18.1009 34.63 18.2108 34.1806 18.9664ZM31.8871 18.2073C31.4883 18.5611 31.1309 18.9321 30.8131 19.3134C30.9479 19.3271 31.0824 19.3649 31.2126 19.4233C31.4112 19.0489 31.6352 18.6298 31.8871 18.2073ZM33.5386 19.1931C32.5398 19.2103 32.1546 19.5778 31.6352 20.0244C31.4615 20.7285 31.3998 21.4258 31.4523 22.1024C32.0832 21.3296 33.0321 20.89 33.9559 21.1647C33.7383 20.5808 33.56 19.8732 33.5386 19.1931ZM35.9141 20.227C35.3934 20.5808 35.0438 21.23 34.9332 21.9719L34.8833 22.2948C36.014 21.7418 37.077 21.017 38.0186 20.1343C37.291 19.8595 36.5312 19.8148 35.9141 20.227ZM30.2174 20.1034C29.8368 20.6667 29.5354 21.2472 29.3067 21.8311C29.9417 21.6731 30.5045 22.02 30.8402 22.4356C30.7431 21.6387 30.7927 20.8178 30.9832 20.0003C30.7121 19.8526 30.4293 19.9557 30.2174 20.1034ZM40.8009 19.99C40.487 20.3919 40.1517 20.7835 39.7986 21.1579C40.0482 21.7521 40.0161 22.4459 39.7451 22.9715C39.4098 23.6206 38.8533 24.129 38.4288 25.0598C38.2505 25.4686 38.0258 27.2066 38.5573 27.2341C40.2409 26.3033 42.1349 24.1393 42.2312 22.3429C41.9958 21.3777 41.4358 20.677 40.8009 19.99ZM32.7182 21.8414C32.2081 22.0853 31.7301 22.628 31.4797 23.4111C32.547 23.2256 33.617 22.889 34.6407 22.4116C34.0522 21.8208 33.4387 21.4945 32.7182 21.8414ZM29.6003 22.3944C28.9782 22.5387 28.9176 23.0367 28.8334 23.5554C29.4444 23.6 30.0686 23.5863 30.6968 23.521C30.5577 23.0127 30.1542 22.3978 29.6003 22.3944ZM33.2532 25.0255C32.9108 25.1217 32.5755 25.2075 32.2473 25.2797C31.962 25.7743 31.5165 26.451 31.449 27.0246C31.4754 27.6085 31.6281 28.1203 31.8264 28.6183C33.4779 27.4951 33.6741 26.372 33.2532 25.0255Z" fill="white"/>
</g>
<defs>
<clipPath id="clip0_11_81">
<rect width="16.0292" height="15.4355" fill="white" transform="translate(9.85397 12.7786)"/>
</clipPath>
<clipPath id="clip1_11_81">
<rect width="18.2628" height="17.5864" fill="white" transform="translate(28.1168 13.1581)"/>
</clipPath>
</defs>
</svg>
