<svg width="218" height="39" viewBox="0 0 218 39" fill="none" xmlns="http://www.w3.org/2000/svg">
<path d="M65.918 30H59.502L55.3125 22.7344H52.2656V30H46.4648V8.02734H55.752C57.6562 8.02734 59.2773 8.31543 60.6152 8.8916C61.9531 9.46777 62.9736 10.3076 63.6768 11.4111C64.3896 12.5049 64.7461 13.8281 64.7461 15.3809C64.7461 16.8359 64.4336 18.0908 63.8086 19.1455C63.1836 20.2002 62.2803 21.0303 61.0986 21.6357L65.918 30ZM52.2656 18.2666H55.2979C56.46 18.2666 57.334 18.0518 57.9199 17.6221C58.5156 17.1826 58.8135 16.5332 58.8135 15.6738C58.8135 14.8145 58.5156 14.1699 57.9199 13.7402C57.334 13.3008 56.46 13.0811 55.2979 13.0811H52.2656V18.2666ZM70.3711 12.5977C69.7168 12.5977 69.165 12.3682 68.7158 11.9092C68.2666 11.4502 68.042 10.8936 68.042 10.2393C68.042 9.58496 68.2666 9.02832 68.7158 8.56934C69.165 8.11035 69.7168 7.88086 70.3711 7.88086C71.0352 7.88086 71.5918 8.11035 72.041 8.56934C72.5 9.02832 72.7295 9.58496 72.7295 10.2393C72.7295 10.8936 72.5 11.4502 72.041 11.9092C71.5918 12.3682 71.0352 12.5977 70.3711 12.5977ZM73.0811 30H67.6758V15.3516H73.0811V30ZM75 28.7549L76.1133 24.3018C76.377 24.6143 76.7676 24.917 77.2852 25.21C77.8125 25.5029 78.3838 25.7422 78.999 25.9277C79.6143 26.1035 80.1807 26.1914 80.6982 26.1914C81.0889 26.1914 81.3867 26.1328 81.5918 26.0156C81.7969 25.8984 81.8994 25.7324 81.8994 25.5176C81.8994 25.293 81.8018 25.1025 81.6064 24.9463C81.4111 24.7803 81.1475 24.6289 80.8154 24.4922C80.4932 24.3555 80.1221 24.2139 79.7021 24.0674C79.0771 23.8428 78.418 23.5693 77.7246 23.2471C77.041 22.915 76.46 22.4658 75.9814 21.8994C75.5029 21.3232 75.2637 20.5566 75.2637 19.5996C75.2637 18.6719 75.5078 17.8711 75.9961 17.1973C76.4941 16.5137 77.1924 15.9863 78.0908 15.6152C78.999 15.2441 80.0635 15.0586 81.2842 15.0586C83.3252 15.0586 85.3809 15.5713 87.4512 16.5967L85.9424 20.7129C85.6299 20.4395 85.2197 20.1807 84.7119 19.9365C84.2041 19.6924 83.6816 19.4922 83.1445 19.3359C82.6172 19.1797 82.1582 19.1016 81.7676 19.1016C81.4453 19.1016 81.2012 19.1602 81.0352 19.2773C80.8789 19.3848 80.8008 19.5361 80.8008 19.7314C80.8008 19.9463 80.8936 20.1367 81.0791 20.3027C81.2744 20.459 81.5332 20.6055 81.8555 20.7422C82.1875 20.8691 82.5488 21.0059 82.9395 21.1523C83.5938 21.377 84.2676 21.6553 84.9609 21.9873C85.6543 22.3096 86.2402 22.7588 86.7188 23.335C87.207 23.9014 87.4512 24.668 87.4512 25.6348C87.4512 26.582 87.1875 27.4072 86.6602 28.1104C86.1426 28.8037 85.4053 29.3408 84.4482 29.7217C83.501 30.1025 82.3779 30.293 81.0791 30.293C78.9111 30.293 76.8848 29.7803 75 28.7549ZM102.876 27.5244C102.163 28.3838 101.27 29.0625 100.195 29.5605C99.1211 30.0488 97.9248 30.293 96.6064 30.293C95.0732 30.293 93.7012 29.9658 92.4902 29.3115C91.2891 28.6475 90.3418 27.7441 89.6484 26.6016C88.9648 25.4492 88.623 24.1406 88.623 22.6758C88.623 21.2109 88.9648 19.9072 89.6484 18.7646C90.3418 17.6123 91.2891 16.709 92.4902 16.0547C93.7012 15.3906 95.0732 15.0586 96.6064 15.0586C97.915 15.0586 99.1016 15.3027 100.166 15.791C101.24 16.2793 102.134 16.9434 102.847 17.7832L99.6973 21.1084C99.3945 20.7373 98.999 20.4443 98.5107 20.2295C98.0322 20.0049 97.5293 19.8926 97.002 19.8926C96.4551 19.8926 95.9668 20.0098 95.5371 20.2441C95.1074 20.4785 94.7705 20.8057 94.5264 21.2256C94.2822 21.6357 94.1602 22.1094 94.1602 22.6465C94.1602 23.1934 94.2822 23.6816 94.5264 24.1113C94.7705 24.5312 95.1074 24.8633 95.5371 25.1074C95.9668 25.3418 96.4551 25.459 97.002 25.459C97.5293 25.459 98.0371 25.3516 98.5254 25.1367C99.0137 24.9121 99.4043 24.6143 99.6973 24.2432L102.876 27.5244ZM112.192 30.293C110.659 30.293 109.287 29.9658 108.076 29.3115C106.875 28.6475 105.928 27.7441 105.234 26.6016C104.551 25.4492 104.209 24.1406 104.209 22.6758C104.209 21.2109 104.551 19.9072 105.234 18.7646C105.928 17.6123 106.875 16.709 108.076 16.0547C109.287 15.3906 110.659 15.0586 112.192 15.0586C113.735 15.0586 115.103 15.3906 116.294 16.0547C117.495 16.709 118.438 17.6123 119.121 18.7646C119.805 19.9072 120.146 21.2109 120.146 22.6758C120.146 24.1406 119.805 25.4492 119.121 26.6016C118.438 27.7441 117.495 28.6475 116.294 29.3115C115.103 29.9658 113.735 30.293 112.192 30.293ZM112.178 25.459C112.646 25.459 113.062 25.3418 113.423 25.1074C113.794 24.8633 114.082 24.5312 114.287 24.1113C114.502 23.6816 114.609 23.1934 114.609 22.6465C114.609 22.1191 114.502 21.6504 114.287 21.2402C114.082 20.8203 113.794 20.4932 113.423 20.2588C113.062 20.0146 112.646 19.8926 112.178 19.8926C111.709 19.8926 111.289 20.0146 110.918 20.2588C110.557 20.4932 110.269 20.8203 110.054 21.2402C109.849 21.6504 109.746 22.1191 109.746 22.6465C109.746 23.1934 109.849 23.6816 110.054 24.1113C110.269 24.5312 110.557 24.8633 110.918 25.1074C111.289 25.3418 111.709 25.459 112.178 25.459ZM128.789 30V8.02734H137.153C139.683 8.02734 141.636 8.54004 143.013 9.56543C144.39 10.5908 145.078 12.041 145.078 13.916C145.078 14.9609 144.844 15.8936 144.375 16.7139C143.906 17.5244 143.271 18.1592 142.471 18.6182C143.662 19.0088 144.585 19.6436 145.239 20.5225C145.894 21.4014 146.221 22.4805 146.221 23.7598C146.221 25.0293 145.913 26.1328 145.298 27.0703C144.683 27.998 143.809 28.7207 142.676 29.2383C141.543 29.7461 140.205 30 138.662 30H128.789ZM134.59 16.8896H136.758C137.588 16.8896 138.228 16.7236 138.677 16.3916C139.136 16.0498 139.365 15.5664 139.365 14.9414C139.365 14.3652 139.136 13.9111 138.677 13.5791C138.218 13.2471 137.578 13.0811 136.758 13.0811H134.59V16.8896ZM134.59 24.9463H137.153C137.817 24.9463 138.384 24.873 138.853 24.7266C139.321 24.5703 139.678 24.3506 139.922 24.0674C140.166 23.7744 140.288 23.4229 140.288 23.0127C140.288 22.6025 140.181 22.2607 139.966 21.9873C139.751 21.7041 139.434 21.4941 139.014 21.3574C138.604 21.2109 138.101 21.1377 137.505 21.1377H134.59V24.9463ZM162.319 30H157.588L157.324 28.3887C156.787 29.0039 156.138 29.4775 155.376 29.8096C154.614 30.1318 153.784 30.293 152.886 30.293C151.88 30.293 150.986 30.1025 150.205 29.7217C149.424 29.3311 148.809 28.7988 148.359 28.125C147.91 27.4414 147.686 26.665 147.686 25.7959C147.686 24.8779 147.93 24.0723 148.418 23.3789C148.906 22.6855 149.58 22.1436 150.439 21.7529C151.309 21.3525 152.3 21.1523 153.413 21.1523C154.019 21.1523 154.614 21.2158 155.2 21.3428C155.786 21.46 156.357 21.6357 156.914 21.8701V21.6357C156.914 21.1865 156.768 20.791 156.475 20.4492C156.191 20.1074 155.791 19.8389 155.273 19.6436C154.766 19.4482 154.185 19.3506 153.53 19.3506C152.866 19.3506 152.222 19.4482 151.597 19.6436C150.981 19.8389 150.43 20.1172 149.941 20.4785L148.564 16.5088C149.639 16.0303 150.703 15.6689 151.758 15.4248C152.812 15.1807 153.823 15.0586 154.79 15.0586C156.323 15.0586 157.651 15.3564 158.774 15.9521C159.907 16.5381 160.781 17.373 161.396 18.457C162.012 19.5312 162.319 20.8008 162.319 22.2656V30ZM154.131 26.3525C154.57 26.3525 155 26.2549 155.42 26.0596C155.85 25.8643 156.201 25.6152 156.475 25.3125C156.748 25.0098 156.885 24.7021 156.885 24.3896V24.375C156.533 24.1699 156.143 24.0137 155.713 23.9062C155.283 23.7891 154.854 23.7305 154.424 23.7305C153.809 23.7305 153.32 23.8477 152.959 24.082C152.607 24.3066 152.432 24.6191 152.432 25.0195C152.432 25.2734 152.505 25.5029 152.651 25.708C152.798 25.9131 152.998 26.0742 153.252 26.1914C153.516 26.2988 153.809 26.3525 154.131 26.3525ZM167.666 12.5977C167.012 12.5977 166.46 12.3682 166.011 11.9092C165.562 11.4502 165.337 10.8936 165.337 10.2393C165.337 9.58496 165.562 9.02832 166.011 8.56934C166.46 8.11035 167.012 7.88086 167.666 7.88086C168.33 7.88086 168.887 8.11035 169.336 8.56934C169.795 9.02832 170.024 9.58496 170.024 10.2393C170.024 10.8936 169.795 11.4502 169.336 11.9092C168.887 12.3682 168.33 12.5977 167.666 12.5977ZM170.376 30H164.971V15.3516H170.376V30ZM179.59 30H172.002L178.271 22.5586L172.222 15.3516H179.81L182.065 19.1016L184.307 15.3516H191.895L185.845 22.5293L192.114 30H184.526L182.051 25.8838L179.59 30ZM200.552 30.293C199.019 30.293 197.646 29.9658 196.436 29.3115C195.234 28.6475 194.287 27.7441 193.594 26.6016C192.91 25.4492 192.568 24.1406 192.568 22.6758C192.568 21.2109 192.91 19.9072 193.594 18.7646C194.287 17.6123 195.234 16.709 196.436 16.0547C197.646 15.3906 199.019 15.0586 200.552 15.0586C202.095 15.0586 203.462 15.3906 204.653 16.0547C205.854 16.709 206.797 17.6123 207.48 18.7646C208.164 19.9072 208.506 21.2109 208.506 22.6758C208.506 24.1406 208.164 25.4492 207.48 26.6016C206.797 27.7441 205.854 28.6475 204.653 29.3115C203.462 29.9658 202.095 30.293 200.552 30.293ZM200.537 25.459C201.006 25.459 201.421 25.3418 201.782 25.1074C202.153 24.8633 202.441 24.5312 202.646 24.1113C202.861 23.6816 202.969 23.1934 202.969 22.6465C202.969 22.1191 202.861 21.6504 202.646 21.2402C202.441 20.8203 202.153 20.4932 201.782 20.2588C201.421 20.0146 201.006 19.8926 200.537 19.8926C200.068 19.8926 199.648 20.0146 199.277 20.2588C198.916 20.4932 198.628 20.8203 198.413 21.2402C198.208 21.6504 198.105 22.1191 198.105 22.6465C198.105 23.1934 198.208 23.6816 198.413 24.1113C198.628 24.5312 198.916 24.8633 199.277 25.1074C199.648 25.3418 200.068 25.459 200.537 25.459Z" fill="#DAAE00"/>
<path d="M20.5025 6.32849L33.8133 26.8902C34.0162 27.2038 34.1231 27.5594 34.1231 27.9215C34.1231 28.2835 34.0162 28.6392 33.8133 28.9527C33.6103 29.2663 33.3184 29.5266 32.9669 29.7076C32.6153 29.8887 32.2166 29.984 31.8106 29.984H5.18915C4.78323 29.984 4.38446 29.8887 4.03292 29.7076C3.68138 29.5266 3.38947 29.2663 3.18651 28.9527C2.98355 28.6392 2.87671 28.2835 2.87671 27.9215C2.87671 27.5594 2.98356 27.2038 3.18653 26.8902L16.4973 6.32849C17.3868 4.95349 19.6114 4.95349 20.5025 6.32849ZM18.4999 22.625C18.091 22.625 17.6989 22.7699 17.4098 23.0277C17.1207 23.2856 16.9582 23.6353 16.9582 24C16.9582 24.3647 17.1207 24.7144 17.4098 24.9723C17.6989 25.2301 18.091 25.375 18.4999 25.375C18.9088 25.375 19.3009 25.2301 19.59 24.9723C19.8791 24.7144 20.0416 24.3647 20.0416 24C20.0416 23.6353 19.8791 23.2856 19.59 23.0277C19.3009 22.7699 18.9088 22.625 18.4999 22.625ZM18.4999 13C18.1223 13 17.7578 13.1237 17.4757 13.3475C17.1935 13.5713 17.0132 13.8796 16.969 14.2141L16.9582 14.375V19.875C16.9587 20.2255 17.1091 20.5625 17.3789 20.8174C17.6486 21.0722 18.0173 21.2256 18.4095 21.2461C18.8018 21.2666 19.1881 21.1528 19.4894 20.9279C19.7907 20.7029 19.9844 20.3839 20.0308 20.0359L20.0416 19.875V14.375C20.0416 14.0103 19.8791 13.6606 19.59 13.4027C19.3009 13.1449 18.9088 13 18.4999 13Z" fill="#DAAE00"/>
</svg>
