<svg width="218" height="39" viewBox="0 0 218 39" fill="none" xmlns="http://www.w3.org/2000/svg">
<path d="M65.918 30H59.502L55.3125 22.7344H52.2656V30H46.4648V8.02734H55.752C57.6562 8.02734 59.2773 8.31543 60.6152 8.8916C61.9531 9.46777 62.9736 10.3076 63.6768 11.4111C64.3896 12.5049 64.7461 13.8281 64.7461 15.3809C64.7461 16.8359 64.4336 18.0908 63.8086 19.1455C63.1836 20.2002 62.2803 21.0303 61.0986 21.6357L65.918 30ZM52.2656 18.2666H55.2979C56.46 18.2666 57.334 18.0518 57.9199 17.6221C58.5156 17.1826 58.8135 16.5332 58.8135 15.6738C58.8135 14.8145 58.5156 14.1699 57.9199 13.7402C57.334 13.3008 56.46 13.0811 55.2979 13.0811H52.2656V18.2666ZM70.3711 12.5977C69.7168 12.5977 69.165 12.3682 68.7158 11.9092C68.2666 11.4502 68.042 10.8936 68.042 10.2393C68.042 9.58496 68.2666 9.02832 68.7158 8.56934C69.165 8.11035 69.7168 7.88086 70.3711 7.88086C71.0352 7.88086 71.5918 8.11035 72.041 8.56934C72.5 9.02832 72.7295 9.58496 72.7295 10.2393C72.7295 10.8936 72.5 11.4502 72.041 11.9092C71.5918 12.3682 71.0352 12.5977 70.3711 12.5977ZM73.0811 30H67.6758V15.3516H73.0811V30ZM75 28.7549L76.1133 24.3018C76.377 24.6143 76.7676 24.917 77.2852 25.21C77.8125 25.5029 78.3838 25.7422 78.999 25.9277C79.6143 26.1035 80.1807 26.1914 80.6982 26.1914C81.0889 26.1914 81.3867 26.1328 81.5918 26.0156C81.7969 25.8984 81.8994 25.7324 81.8994 25.5176C81.8994 25.293 81.8018 25.1025 81.6064 24.9463C81.4111 24.7803 81.1475 24.6289 80.8154 24.4922C80.4932 24.3555 80.1221 24.2139 79.7021 24.0674C79.0771 23.8428 78.418 23.5693 77.7246 23.2471C77.041 22.915 76.46 22.4658 75.9814 21.8994C75.5029 21.3232 75.2637 20.5566 75.2637 19.5996C75.2637 18.6719 75.5078 17.8711 75.9961 17.1973C76.4941 16.5137 77.1924 15.9863 78.0908 15.6152C78.999 15.2441 80.0635 15.0586 81.2842 15.0586C83.3252 15.0586 85.3809 15.5713 87.4512 16.5967L85.9424 20.7129C85.6299 20.4395 85.2197 20.1807 84.7119 19.9365C84.2041 19.6924 83.6816 19.4922 83.1445 19.3359C82.6172 19.1797 82.1582 19.1016 81.7676 19.1016C81.4453 19.1016 81.2012 19.1602 81.0352 19.2773C80.8789 19.3848 80.8008 19.5361 80.8008 19.7314C80.8008 19.9463 80.8936 20.1367 81.0791 20.3027C81.2744 20.459 81.5332 20.6055 81.8555 20.7422C82.1875 20.8691 82.5488 21.0059 82.9395 21.1523C83.5938 21.377 84.2676 21.6553 84.9609 21.9873C85.6543 22.3096 86.2402 22.7588 86.7188 23.335C87.207 23.9014 87.4512 24.668 87.4512 25.6348C87.4512 26.582 87.1875 27.4072 86.6602 28.1104C86.1426 28.8037 85.4053 29.3408 84.4482 29.7217C83.501 30.1025 82.3779 30.293 81.0791 30.293C78.9111 30.293 76.8848 29.7803 75 28.7549ZM102.876 27.5244C102.163 28.3838 101.27 29.0625 100.195 29.5605C99.1211 30.0488 97.9248 30.293 96.6064 30.293C95.0732 30.293 93.7012 29.9658 92.4902 29.3115C91.2891 28.6475 90.3418 27.7441 89.6484 26.6016C88.9648 25.4492 88.623 24.1406 88.623 22.6758C88.623 21.2109 88.9648 19.9072 89.6484 18.7646C90.3418 17.6123 91.2891 16.709 92.4902 16.0547C93.7012 15.3906 95.0732 15.0586 96.6064 15.0586C97.915 15.0586 99.1016 15.3027 100.166 15.791C101.24 16.2793 102.134 16.9434 102.847 17.7832L99.6973 21.1084C99.3945 20.7373 98.999 20.4443 98.5107 20.2295C98.0322 20.0049 97.5293 19.8926 97.002 19.8926C96.4551 19.8926 95.9668 20.0098 95.5371 20.2441C95.1074 20.4785 94.7705 20.8057 94.5264 21.2256C94.2822 21.6357 94.1602 22.1094 94.1602 22.6465C94.1602 23.1934 94.2822 23.6816 94.5264 24.1113C94.7705 24.5312 95.1074 24.8633 95.5371 25.1074C95.9668 25.3418 96.4551 25.459 97.002 25.459C97.5293 25.459 98.0371 25.3516 98.5254 25.1367C99.0137 24.9121 99.4043 24.6143 99.6973 24.2432L102.876 27.5244ZM112.192 30.293C110.659 30.293 109.287 29.9658 108.076 29.3115C106.875 28.6475 105.928 27.7441 105.234 26.6016C104.551 25.4492 104.209 24.1406 104.209 22.6758C104.209 21.2109 104.551 19.9072 105.234 18.7646C105.928 17.6123 106.875 16.709 108.076 16.0547C109.287 15.3906 110.659 15.0586 112.192 15.0586C113.735 15.0586 115.103 15.3906 116.294 16.0547C117.495 16.709 118.438 17.6123 119.121 18.7646C119.805 19.9072 120.146 21.2109 120.146 22.6758C120.146 24.1406 119.805 25.4492 119.121 26.6016C118.438 27.7441 117.495 28.6475 116.294 29.3115C115.103 29.9658 113.735 30.293 112.192 30.293ZM112.178 25.459C112.646 25.459 113.062 25.3418 113.423 25.1074C113.794 24.8633 114.082 24.5312 114.287 24.1113C114.502 23.6816 114.609 23.1934 114.609 22.6465C114.609 22.1191 114.502 21.6504 114.287 21.2402C114.082 20.8203 113.794 20.4932 113.423 20.2588C113.062 20.0146 112.646 19.8926 112.178 19.8926C111.709 19.8926 111.289 20.0146 110.918 20.2588C110.557 20.4932 110.269 20.8203 110.054 21.2402C109.849 21.6504 109.746 22.1191 109.746 22.6465C109.746 23.1934 109.849 23.6816 110.054 24.1113C110.269 24.5312 110.557 24.8633 110.918 25.1074C111.289 25.3418 111.709 25.459 112.178 25.459ZM153.179 30H147.378V16.3477L143.115 26.3086H138.838L134.59 16.377V30H128.789V8.02734H136.113L140.977 19.7754L145.854 8.02734H153.179V30ZM170.054 28.4619C168.228 29.6826 166.245 30.293 164.106 30.293C162.456 30.293 160.972 29.9512 159.653 29.2676C158.345 28.5742 157.305 27.6367 156.533 26.4551C155.771 25.2637 155.391 23.9209 155.391 22.4268C155.391 21.0205 155.732 19.7656 156.416 18.6621C157.1 17.5488 158.027 16.6699 159.199 16.0254C160.381 15.3809 161.714 15.0586 163.198 15.0586C164.751 15.0586 166.113 15.415 167.285 16.1279C168.457 16.8408 169.37 17.832 170.024 19.1016C170.679 20.3711 171.006 21.8457 171.006 23.5254V23.9941H161.191C161.367 24.375 161.611 24.7217 161.924 25.0342C162.236 25.3369 162.627 25.5811 163.096 25.7666C163.564 25.9521 164.111 26.0449 164.736 26.0449C166.113 26.0449 167.417 25.6055 168.647 24.7266L170.054 28.4619ZM160.942 21.7969H166.055C166.006 21.3379 165.864 20.9326 165.63 20.5811C165.405 20.2295 165.103 19.9561 164.722 19.7607C164.351 19.5557 163.936 19.4531 163.477 19.4531C163.008 19.4531 162.598 19.5605 162.246 19.7754C161.895 19.9902 161.606 20.2734 161.382 20.625C161.167 20.9766 161.021 21.3672 160.942 21.7969ZM164.78 13.0078H160.957L162.891 8.02734H167.71L164.78 13.0078ZM188.818 30H184.087L183.809 28.0957C183.223 28.7793 182.52 29.3164 181.699 29.707C180.889 30.0977 180.005 30.293 179.048 30.293C177.778 30.293 176.646 29.9658 175.649 29.3115C174.663 28.6475 173.887 27.7441 173.32 26.6016C172.754 25.4492 172.471 24.1406 172.471 22.6758C172.471 21.2109 172.754 19.9072 173.32 18.7646C173.887 17.6123 174.663 16.709 175.649 16.0547C176.646 15.3906 177.778 15.0586 179.048 15.0586C179.907 15.0586 180.708 15.2148 181.45 15.5273C182.192 15.8301 182.847 16.2598 183.413 16.8164V8.02734H188.818V30ZM180.718 25.459C181.216 25.459 181.665 25.3516 182.065 25.1367C182.476 24.9219 182.803 24.624 183.047 24.2432C183.291 23.8623 183.413 23.4229 183.413 22.9248V22.3828C183.413 21.8945 183.291 21.4648 183.047 21.0938C182.803 20.7227 182.476 20.4297 182.065 20.2148C181.665 20 181.216 19.8926 180.718 19.8926C180.2 19.8926 179.736 20.0146 179.326 20.2588C178.916 20.4932 178.594 20.8203 178.359 21.2402C178.125 21.6602 178.008 22.1387 178.008 22.6758C178.008 23.2129 178.125 23.6914 178.359 24.1113C178.594 24.5312 178.916 24.8633 179.326 25.1074C179.736 25.3418 180.2 25.459 180.718 25.459ZM194.443 12.5977C193.789 12.5977 193.237 12.3682 192.788 11.9092C192.339 11.4502 192.114 10.8936 192.114 10.2393C192.114 9.58496 192.339 9.02832 192.788 8.56934C193.237 8.11035 193.789 7.88086 194.443 7.88086C195.107 7.88086 195.664 8.11035 196.113 8.56934C196.572 9.02832 196.802 9.58496 196.802 10.2393C196.802 10.8936 196.572 11.4502 196.113 11.9092C195.664 12.3682 195.107 12.5977 194.443 12.5977ZM197.153 30H191.748V15.3516H197.153V30ZM207.349 30.293C205.815 30.293 204.443 29.9658 203.232 29.3115C202.031 28.6475 201.084 27.7441 200.391 26.6016C199.707 25.4492 199.365 24.1406 199.365 22.6758C199.365 21.2109 199.707 19.9072 200.391 18.7646C201.084 17.6123 202.031 16.709 203.232 16.0547C204.443 15.3906 205.815 15.0586 207.349 15.0586C208.892 15.0586 210.259 15.3906 211.45 16.0547C212.651 16.709 213.594 17.6123 214.277 18.7646C214.961 19.9072 215.303 21.2109 215.303 22.6758C215.303 24.1406 214.961 25.4492 214.277 26.6016C213.594 27.7441 212.651 28.6475 211.45 29.3115C210.259 29.9658 208.892 30.293 207.349 30.293ZM207.334 25.459C207.803 25.459 208.218 25.3418 208.579 25.1074C208.95 24.8633 209.238 24.5312 209.443 24.1113C209.658 23.6816 209.766 23.1934 209.766 22.6465C209.766 22.1191 209.658 21.6504 209.443 21.2402C209.238 20.8203 208.95 20.4932 208.579 20.2588C208.218 20.0146 207.803 19.8926 207.334 19.8926C206.865 19.8926 206.445 20.0146 206.074 20.2588C205.713 20.4932 205.425 20.8203 205.21 21.2402C205.005 21.6504 204.902 22.1191 204.902 22.6465C204.902 23.1934 205.005 23.6816 205.21 24.1113C205.425 24.5312 205.713 24.8633 206.074 25.1074C206.445 25.3418 206.865 25.459 207.334 25.459Z" fill="#DA6D00"/>
<path d="M20.5025 6.32849L33.8133 26.8902C34.0162 27.2038 34.1231 27.5594 34.1231 27.9215C34.1231 28.2835 34.0162 28.6392 33.8133 28.9527C33.6103 29.2663 33.3184 29.5266 32.9669 29.7076C32.6153 29.8887 32.2166 29.984 31.8106 29.984H5.18915C4.78323 29.984 4.38446 29.8887 4.03292 29.7076C3.68138 29.5266 3.38947 29.2663 3.18651 28.9527C2.98355 28.6392 2.87671 28.2835 2.87671 27.9215C2.87671 27.5594 2.98356 27.2038 3.18653 26.8902L16.4973 6.32849C17.3868 4.95349 19.6114 4.95349 20.5025 6.32849ZM18.4999 22.625C18.091 22.625 17.6989 22.7699 17.4098 23.0277C17.1207 23.2856 16.9582 23.6353 16.9582 24C16.9582 24.3647 17.1207 24.7144 17.4098 24.9723C17.6989 25.2301 18.091 25.375 18.4999 25.375C18.9088 25.375 19.3009 25.2301 19.59 24.9723C19.8791 24.7144 20.0416 24.3647 20.0416 24C20.0416 23.6353 19.8791 23.2856 19.59 23.0277C19.3009 22.7699 18.9088 22.625 18.4999 22.625ZM18.4999 13C18.1223 13 17.7578 13.1237 17.4757 13.3475C17.1935 13.5713 17.0132 13.8796 16.969 14.2141L16.9582 14.375V19.875C16.9587 20.2255 17.1091 20.5625 17.3789 20.8174C17.6486 21.0722 18.0173 21.2256 18.4095 21.2461C18.8018 21.2666 19.1881 21.1528 19.4894 20.9279C19.7907 20.7029 19.9844 20.3839 20.0308 20.0359L20.0416 19.875V14.375C20.0416 14.0103 19.8791 13.6606 19.59 13.4027C19.3009 13.1449 18.9088 13 18.4999 13Z" fill="#DA6D00"/>
</svg>
