<svg width="236" height="236" viewBox="0 0 236 236" fill="none" xmlns="http://www.w3.org/2000/svg">
<path fill-rule="evenodd" clip-rule="evenodd" d="M90.9585 39.3333C90.9585 32.1614 93.8075 25.2833 98.8788 20.212C103.95 15.1407 110.828 12.2917 118 12.2917C125.172 12.2917 132.05 15.1407 137.122 20.212C142.193 25.2833 145.042 32.1614 145.042 39.3333C145.042 46.5052 142.193 53.3834 137.122 58.4547C132.05 63.526 125.172 66.375 118 66.375C110.828 66.375 103.95 63.526 98.8788 58.4547C93.8075 53.3834 90.9585 46.5052 90.9585 39.3333Z" fill="#0C0F4B"/>
<path d="M80.8593 113.811L59.4718 106.682C55.8073 105.473 52.7463 102.904 50.9202 99.5047C49.0941 96.1054 48.642 92.1349 49.6572 88.4121C50.6724 84.6893 53.0775 81.498 56.3764 79.4962C59.6754 77.4945 63.6167 76.8351 67.3877 77.6538L86.0513 81.656L88.1163 82.0887C108.526 86.3147 129.6 86.1672 149.948 81.656L168.602 77.6538C172.376 76.8267 176.323 77.4807 179.628 79.4809C182.933 81.4811 185.343 84.6745 186.361 88.4012C187.378 92.1279 186.925 96.103 185.095 99.5052C183.265 102.907 180.198 105.477 176.528 106.682L155.14 113.811C152.554 114.676 151.266 115.109 150.292 115.709C148.672 116.708 147.377 118.156 146.563 119.877C145.75 121.598 145.454 123.518 145.71 125.404C145.867 126.535 146.359 127.804 147.333 130.351L159.595 162.23C160.914 165.64 160.895 169.422 159.541 172.818C158.188 176.214 155.601 178.973 152.298 180.541C148.995 182.109 145.222 182.37 141.735 181.272C138.248 180.174 135.305 177.798 133.497 174.62L118 147.5L102.502 174.61C100.694 177.788 97.7515 180.164 94.2645 181.262C90.7775 182.36 87.0042 182.099 83.7016 180.531C80.3991 178.963 77.8116 176.205 76.4582 172.808C75.1049 169.412 75.0858 165.63 76.4048 162.22L88.667 130.351C89.6503 127.804 90.1322 126.535 90.2895 125.404C90.5461 123.518 90.2498 121.598 89.4363 119.877C88.6229 118.156 87.3275 116.708 85.7071 115.709C84.7336 115.109 83.4455 114.676 80.8593 113.811Z" fill="#0C0F4B"/>
<path d="M118 216.333C172.309 216.333 216.333 196.519 216.333 172.083C216.333 155.15 195.192 140.44 164.158 132.996L173.362 156.93C180.727 176.085 166.596 196.657 146.074 196.657C140.921 196.66 135.859 195.3 131.401 192.715C126.944 190.13 123.25 186.411 120.694 181.936L118 177.216L115.306 181.936C112.753 186.41 109.062 190.129 104.609 192.716C100.155 195.303 95.096 196.666 89.9453 196.667C69.4232 196.667 55.2828 176.085 62.648 156.93L71.852 132.996C40.7983 140.44 19.6665 155.15 19.6665 172.083C19.6665 196.519 63.6903 216.333 118 216.333Z" fill="#0C0F4B"/>
<path d="M89 66C102 76.4645 125 83.7441 146 67.3649" stroke="#0C0F4B" stroke-width="10" stroke-linecap="round"/>
</svg>
